<?xml version="1.0" encoding="UTF-8"?>
<svg id="Layer_2" data-name="Layer 2" xmlns="http://www.w3.org/2000/svg" viewBox="0 0 950.7 739.07">
  <defs>
    <style>
      .cls-1 {
        fill: #0080ff;
      }

      .cls-1, .cls-2, .cls-3, .cls-4, .cls-5, .cls-6, .cls-7, .cls-8, .cls-9, .cls-10, .cls-11, .cls-12, .cls-13, .cls-14, .cls-15 {
        stroke: #000;
        stroke-miterlimit: 10;
        stroke-width: 2px;
      }

      .cls-2 {
        fill: #ffe6ff;
      }

      .cls-3 {
        fill: #579fff;
      }

      .cls-4 {
        fill: #cb0000;
      }

      .cls-16 {
        fill: #9b0000;
      }

      .cls-5 {
        fill: #ffc6ff;
      }

      .cls-6 {
        fill: #fc3d21;
      }

      .cls-7 {
        fill: #006887;
      }

      .cls-8 {
        fill: #ff9e00;
      }

      .cls-9 {
        fill: #f0f;
      }

      .cls-10 {
        fill: #ffe200;
      }

      .cls-11 {
        fill: #009200;
      }

      .cls-12 {
        fill: #7e00ff;
      }

      .cls-13 {
        fill: #0f7e3d;
      }

      .cls-14 {
        fill: red;
      }

      .cls-15 {
        fill: blue;
      }
    </style>
  </defs>
  <g id="Layer_2-2" data-name="Layer 2">
    <g>
      <path class="cls-9" d="M892.48,314.12c-50.21-8.23-115.97-17.81-167.47-42.56-22.82-9.85-47.73-27.83-24.01-52.06,6.06-5.97,13.62-10.53,21.06-14.67,32.72-17.87,67.38-29.59,101.42-45.4,18.84-8.99,47.56-21.82,2.57-7.27-36.72,10.83-74.19,16.51-112.2,9.63-31.61-4.63-51.26-11.7-45.63-46.37,2.17-20.43,10.3-45.33,17.82-63.55.07-.25.11-.42.1-.51-.03-.52-1.55,1.93-4.34,6.13-.38.56-.77,1.15-1.19,1.76-6.25,9.15-12.73,17.03-22.2,25.6-13.16,11.02-29.25,24.54-46.73,25.16-39.32-4.54-43.75-80.84-46.73-103.72-.09-2.27-.42-4.69-.54-6.21-1.55,15.38-1.66,39.28-3.64,56.46-4.04,38.09-12.38,78.57-46.58,98.74-15.27,8.71-34.48,4.21-43.88-10.64-10.21-15.1-12.57-33.96-16.8-53.46-4.27-21.53-8.69-46.09-12.31-67-1.93-10.98-2.19-13.57-1.77-1.16.64,19.93,1.22,43.42,1.52,64.03-.3,20,5.1,101.89-30.62,73.71-21.68-21.24-40.47-51.66-56.14-76.91-4.02-5.91-21.71-39.18-21.48-34.08,9.3,31.23,69.68,184.22,17.46,186.08-8.35.04-21.61-3.94-32.08-7.46-21.14-7.05-41.25-16.07-61.2-25.97-8.2-4.03-16.53-8.28-24.67-12.26-8.24-4.01-14.93-7.02-14.5-5.52-.56.62,7.12,7.1,10.39,9.87,15.8,13.05,29.23,25.82,45.03,40.54,17.86,16.54,45.66,46.52,22.94,69.29-63.86,59.41-268.25,21.73-291.31,20.46,24.2,12.13,134.08,52.03,180.39,89.6,18.34,14.14,29.46,38.23,21.2,61.13-9.31,28.26-36.07,39.68-61.13,53.57-26.75,14.38-61.41,28.46-84.33,41.45-.3.22-.5.39-.61.53-.13.16-.13.26,0,.31.14.06.44.04.89-.04,3.04-.53,12.51-4.17,26.2-7.8,38.35-10.25,80.71-11.73,117.81,2.68,14.79,5.85,31.4,10.6,41.86,23.42,23.55,35.45,15.41,85.58,4.54,124.34-4.84,16.78,6.45.31,10.37-4.74,15.86-20.8,27.49-44.6,43.36-64.15,12.37-15.04,39.7-42.48,56.04-17.56,18.96,29.88,23.95,65.99,22.13,100.82-.19,7.25-.29,11.49.28,8.97,2.13-21.9,8.18-57.15,21.62-79.53,9.33-15.75,18.61-29.23,34.91-34.13,53.37-10.8,146.05,86.33,165.84,99.35,1.04.72,1.84,1.19,2.36,1.38.73.27.92,0,.51-.82-14.95-20.92-95.52-84.55-109.19-125.34-5.82-24.33,29.75-23.68,45.6-18.39,13.23,4.01,24.01,12.68,34.41,21.62,6.2,4.65,35.9,33.49,32.39,25.29-8.71-19.84-106.84-127.86-33.63-111.2,10.78,2.28,23.69,6.62,36.37,11.24,15.14,5.46,30.42,11.81,44.29,15.83,32.65,9.52-17.8-28.8-28.26-48.12-10.74-15.39-23.13-41.39-3.89-54.73,31.19-17.24,75.04,19.4,99.94,34.28-15.63-12.7-43.94-35.66-50.27-61.1-7.4-25.39,3.23-57.92,27.8-69.27,21.25-10.61,43.41-14.62,67.06-17.97,52.48-7.85,122.64-2.6,171.83-1.16,7.03.16,9.21-.21,1.02-1.9-16.69-3.22-35.54-5.91-51.8-8.55l-.15-.02Z"/>
      <g>
        <path class="cls-16" d="M279.89,356.45c.79-.09,2.16-.43,4.11-1.03,1.26-.13,2,.23,2.21,1.07.09,1.65.39,3.51.91,5.59l.8,3.2c.2.81.53,1.7.99,2.66-.13.79-.5,1.26-1.1,1.41l-5.02,1.26c-.81.2-1.04,1.01-.68,2.43-.11.84.62,4.43,2.21,10.77.34,1.37,2.05,6.49,5.14,15.37-.08.88-.84,1.5-2.28,1.86l-1.52.38c-.56.14-3.63.58-9.21,1.33-.96.24-2,.61-3.12,1.1-.58.15-1.38-.25-2.4-1.18-1.1-7.41-2.84-15.87-5.21-25.38.1-.03.03-.55-.23-1.56-.18-.71-1.03-.88-2.55-.49-2.11.74-3.5,1.2-4.19,1.37-1.12.28-2.18-1.61-3.2-5.67-.28-1.98-.7-4.08-1.26-6.32-.17-.68.07-1.23.72-1.64l1.41-.19c1.5-.37,9.32-2.49,23.48-6.36ZM262.5,376.81l.3-.08c.13-.03.7.31,1.71,1.03l.34,1.37c.05.2-.03.33-.23.38-1.29-.84-2.48-1.51-3.58-2.02l1.18-.46.27-.23ZM276.31,404.89l.15-.04c.16-.01,2.31,1.28,6.47,3.88l.08.31-1.37.34c-2.94-1.4-5.21-2.78-6.82-4.16l1.49-.33ZM277.19,403.86c1.6-.4,2.98-.04,4.15,1.07.16-.01,1.87,1.01,5.14,3.08l.04.15c-1.57.39-2.96.04-4.15-1.06-3.27-1.98-4.97-2.96-5.1-2.93l-.08-.3ZM281.11,403.37c1.6-.4,2.98-.04,4.15,1.07.16-.01,1.87,1.01,5.14,3.08l.04.15-.15.04c-1.34.34-2.3.2-2.85-.42l-6.28-3.77-.04-.15ZM283.12,371.97l.15-.04c.13-.03,2.6,1.45,7.42,4.45l.3,1.22c.05.2-.03.33-.23.38l-.15.04c-.05-.2-2.46-1.65-7.23-4.34l-.12-1.1-.15-.61ZM283.58,375.1l.15-.04c.13-.03,2.6,1.45,7.42,4.45l.38,1.52-.3.08-7.23-4.34-.42-1.67ZM284.26,378.48l.31-.08c.13-.03,2.54,1.41,7.23,4.34l.34,1.37c.05.2-.02.33-.23.38-.72-.6-3-1.97-6.85-4.11-.29-.28-.46-.56-.53-.84l-.27-1.07ZM284.76,371.4l1.67-.42c.13-.03,2.6,1.45,7.42,4.45l.04.15-1.67.42c-.08.02-2.55-1.46-7.42-4.45l-.04-.15ZM285.06,381.68l.15-.04c.13-.03,2.6,1.45,7.42,4.45l.34,1.37c.05.2-.03.33-.23.38-.72-.6-3-1.97-6.85-4.11-.29-.28-.46-.56-.53-.84l-.3-1.22ZM285.18,402.83l1.52-.38c.13-.03,2.6,1.45,7.42,4.45l.04.15-1.67.42c-.08.02-2.49-1.43-7.23-4.34l-.08-.3ZM285.9,385.03l.15-.04c4.89,2.74,7.39,4.32,7.5,4.76.2.35.36.8.5,1.33l-.3.08-7.04-4.22c-.15.04-.42-.6-.8-1.9ZM287.12,388.6l.15-.04c4.89,2.74,7.39,4.32,7.5,4.76.13.1.27.44.42,1.03l.11.46-.15.04c-.08.02-1.47-.82-4.19-2.51-2.1-1.06-3.23-1.91-3.39-2.55-.06-.25-.22-.65-.46-1.18ZM288.07,360.71l.15-.04c.13-.03,2.6,1.45,7.42,4.45l.42,1.67-.3.08c-.03-.1-2.45-1.6-7.27-4.49l-.42-1.67ZM288.07,358.97v-1.29c1.72.94,4.09,2.39,7.11,4.33l.23,1.56-.15.04c-2.75-1.6-5.12-3.05-7.11-4.33l-.08-.3ZM289.55,369.88l7.27,4.49c.04.15-.08.34-.34.57l-.91.23-7.42-4.45-.04-.15c.1-.03.58-.25,1.45-.69ZM288.53,392.29l.15-.04c4.76,2.66,7.2,4.21,7.31,4.64.13.1.27.44.42,1.03l.08.3-.3.08c-4.76-2.77-7.19-4.27-7.27-4.49l-.38-1.52ZM289.37,401.46l.3-.08c.13-.03,2.6,1.45,7.42,4.45-.36.41-.83.69-1.41.84-4.11-2.64-6.27-3.93-6.47-3.88l-.61-.49-.04-.15c.03-.33.29-.56.8-.69ZM288.9,364.06l.15-.04c.13-.03,2.6,1.45,7.42,4.45l.42,1.67-.3.08c-.03-.13-1.5-1.05-4.41-2.78-1.85-.94-2.84-1.66-2.97-2.17l-.3-1.22ZM289.55,395.76l.15-.04c4.89,2.74,7.39,4.33,7.5,4.76.13.1.27.44.42,1.03l.11.46-.3.08c-.03-.1-2.13-1.41-6.32-3.92-.72-.3-1.24-1.09-1.56-2.36ZM290.12,367.64l.15-.04c.13-.03,2.6,1.45,7.42,4.45l.15.61c-.14.3-.19.53-.15.68l-.15.04c-.23.03-2.7-1.4-7.38-4.3-.06-.25-.08-.74-.04-1.45ZM290.62,399.37l.3-.08c.13-.03,2.54,1.41,7.23,4.34l.15.61c.04.15-.12.41-.46.76l-7.42-4.45c.18-.58.24-.98.19-1.18Z"/>
        <path class="cls-16" d="M299.29,352.57c1.67.01,5.07-.62,10.2-1.9l.91-.23c.35-.09,1.19-.41,2.51-.95.5.28,1.05,1.6,1.64,3.96l.23.91c1.39,8.14,3.86,19.33,7.42,33.56-.08.02,0,.75.23,2.21l.38.87.19.76c.06.23-.16.44-.65.65-.76-.03-1.39.02-1.9.15l-2.59.65c-1.12.28-3.97,1.16-8.56,2.63-.97,0-1.62-.65-1.94-1.94l-.65-2.59c-.67-3.98-1.24-6.91-1.71-8.79-.18-.71-.33-1.1-.46-1.18-.16-1.07-.31-1.89-.46-2.47l-2.93-11.72c-.04-.15-.14-.99-.31-2.51l-2.02-8.07c-.11-.43-.2-1-.27-1.71l-.57-.99c-.13-.53.3-.96,1.29-1.29ZM310.67,396.78l.46-.11c.13-.03,2.41,1.34,6.85,4.11.05.2-.03.33-.23.38l-1.07.27c-.21.03-2.24-1.19-6.09-3.65l-.67-.56c.32-.24.56-.38.74-.43ZM314.25,395.56l6.89,4.26.04.15-1.22.3c-.38.1-1.29-.32-2.74-1.26l-4.57-2.74c.36-.3.89-.54,1.6-.72ZM315.65,351.39l.46-.11c.16-.01,2.25,1.24,6.28,3.77l.34,1.37c.05.2-.03.33-.23.38-.09-.25-1.62-1.21-4.6-2.89l-2.32-1.52-.15-.61c-.03-.21.05-.34.23-.38ZM316.04,394.95l1.22-.3c.13-.03,2.47,1.38,7.04,4.22l.04.15-1.67.42-6.85-4.11-.04-.15.27-.23ZM316.03,354.2l.15-.04c.13-.03,2.47,1.38,7.04,4.22l.12.46.11,1.1-.3.08c-.06-.25-1.53-1.18-4.41-2.78l-2.32-1.52-.38-1.52ZM316.68,357.44l.15-.04c.13-.03,2.41,1.34,6.85,4.11l.38,1.52-.15.04c-4.65-2.64-7-4.04-7.04-4.22l-.15-.61-.04-.8ZM317.44,360.48l6.89,4.26.34,1.37-.3.08c-4.52-2.56-6.8-3.93-6.85-4.11l-.3-1.22c-.03-.21.05-.34.23-.38ZM317.78,363.79l.15-.04c.13-.03,2.47,1.38,7.04,4.22l.38,1.52-.15.04c-.85-.38-3.2-1.79-7.04-4.22l-.38-1.52ZM318.62,367.14l.15-.04c.13-.03,2.41,1.34,6.85,4.11l.38,1.52-.15.04-7-4.07-.04-.8-.19-.76ZM319.08,394.19l1.52-.38c.13-.03,2.54,1.42,7.23,4.34l.04.15c-1.74.38-2.69.24-2.85-.42-3.88-2.13-5.85-3.36-5.94-3.69ZM319.27,370.37l.15-.04c.13-.03,2.47,1.38,7.04,4.22l.38,1.52-.15.04c-.62-.22-2.97-1.63-7.04-4.22l-.38-1.52ZM320.1,373.72l.15-.04c.13-.03,2.47,1.38,7.04,4.22l.38,1.52-.15.04c-.62-.22-2.97-1.63-7.04-4.22l-.38-1.52ZM320.94,377.07l.15-.04c.13-.03,2.47,1.38,7.04,4.22l.38,1.52-.15.04c-.62-.22-2.97-1.63-7.04-4.22l-.38-1.52ZM321.78,380.42l.15-.04c.12-.03,2.47,1.38,7.04,4.22l.38,1.52-.15.04c-.62-.22-2.97-1.63-7.04-4.22l-.38-1.52ZM322.77,383.73c.13-.03,2.41,1.34,6.85,4.11l.38,1.52-.15.04c-.21.03-2.55-1.38-7.04-4.22l-.27-1.06c-.03-.21.05-.34.23-.38ZM324.1,392.94l6.32,3.92.04.15c.04.15-.08.34-.34.57l-.76.19c-2.27-1.43-4.49-2.76-6.66-3.99.46-.44.93-.72,1.41-.84ZM323.26,387l.15-.04c.13-.03,2.41,1.34,6.85,4.11l.38,1.52-.15.04c-4.63-2.56-6.99-4.02-7.08-4.38-.03-.1-.08-.52-.15-1.26ZM323.91,390.23l.15-.04c.13-.03,2.47,1.38,7.04,4.22l.11.46.04.8c-.48.12-1.85-.62-4.11-2.21-.18.04-1.13-.53-2.85-1.71l-.38-1.52Z"/>
        <path class="cls-16" d="M354.88,337.53c.18-.04.9.04,2.17.27,2.11-.63,3.82-1.12,5.14-1.45l1.06-.27,7.72-1.45,1.75-.76c.79-.2,1.43.45,1.94,1.94.23,1.34.45,2.42.65,3.23l.76,3.04c.11.46.42,1.24.91,2.36.09.36.15.82.19,1.41l2.36,7.5c.06.23.06.44,0,.65.93,3.3,1.63,5.87,2.09,7.72l1.22,4.87c.43,1.72.55,2.61.34,2.66l.34.72.68,2.74c.63,1.67.98,2.61,1.03,2.81.07.28-.39.61-1.37.99l-.3.08c-2.64.66-5.5,1.48-8.6,2.47-1.07.16-1.89.31-2.47.46-.28.29-.56.46-.84.53l-.3.08c-.41.1-.91-.63-1.52-2.21-1.45-6.65-2.37-10.78-2.78-12.4-.51-1.71-.98-2.5-1.41-2.4-.91.23-1.05,5.71-.42,16.44l.61,1.14c-.09.51-.23.81-.42.91l-.15.04c-3.09.23-5.64.6-7.65,1.1-.41.43-.93.72-1.56.88-1.01.25-1.8-.74-2.36-2.97-2.22-5.1-3.85-7.98-4.91-8.64-.53-.51-.86-.75-.99-.72l-.3.08c-.51.13,0,3.23,1.52,9.32.72,2.46,1.12,3.82,1.18,4.07-.35.31-.52.51-.49.61-1.75,0-3.88.32-6.39.95-2.54.63-5.15,1.4-7.84,2.28l-.88-.91c-.45-2.21-.79-3.79-1.03-4.76l-.04-.8c-.03-.1-.09-.14-.19-.11-.11-1.29-.32-2.59-.65-3.88-.8-3.22-2.51-9.8-5.1-19.75l-.38-2.17c-.2-.38-.34-.72-.42-1.03l-.19-1.41c-.03-.1-.18-.49-.46-1.18-.03-.13-.11-.65-.23-1.56-.93-2.87-1.43-4.41-1.48-4.64.05-.44.15-.69.3-.72,1.24.23,2.63.15,4.15-.23,7.33-2.05,12.02-3.55,14.08-4.49.61-.15,1.33.8,2.17,2.85,3.58,5.25,5.85,8.51,6.81,9.78l.76-.19c.58-2.84.9-6.75.95-11.72.3-.75.48-1.98.53-3.69.28-.29.51-.45.68-.49ZM337.57,389.24c.13-.03,2.47,1.38,7.04,4.22l.04.15-1.52.38c-2.11-1.12-3.95-2.22-5.52-3.31l-.27-1.07c-.02-.21.05-.34.23-.38ZM340.43,388.37l.3-.08c.13-.03,2.47,1.38,7.04,4.22l.04.15-1.52.38c-4.53-2.59-6.81-3.96-6.85-4.11l-.04-.15,1.03-.42ZM342.56,387.84l1.52-.38c.13-.03,2.47,1.38,7.04,4.22l.04.15-1.52.38c-4.62-2.64-6.97-4.05-7.04-4.22l-.04-.15ZM346.1,387.11l.76-.19c.86-.22,2.32.44,4.38,1.98.13-.03,1.4.73,3.81,2.28l.04.15c-1.52.38-3.11-.14-4.76-1.56-.18.04-1.57-.79-4.18-2.51l-.04-.15ZM346.51,343.51l.15-.04c.13-.03,1.97,1.07,5.52,3.31.1.84.05,1.28-.15,1.33-3.32-1.62-5.16-3.16-5.52-4.6ZM348.83,374.14l.3-.08c.23.51.36.8.38.88l-.27.23-.23-.27-.19-.76ZM349.59,376.54c.95.35,1.58,1.17,1.9,2.43l-.15.04c-1.07-.38-1.66-.82-1.79-1.33l-.19-.76c-.03-.21.05-.34.23-.38ZM350.01,348.45l.15-.04c.13-.03.7.31,1.71,1.03.18.74.13,1.18-.15,1.33-.13.03-.63-.49-1.52-1.56l-.19-.76ZM351.16,386.01c.22.02,2.38,1.32,6.47,3.88.04.15-.11.41-.46.76l-.46.11c-4.38-2.43-6.61-3.82-6.7-4.15.33-.3.71-.5,1.14-.61ZM350.09,379.81l.15-.04c1.53.51,2.49,1.56,2.89,3.16l-.3.08c-.06-.25-.84-.76-2.32-1.52l-.42-1.67ZM351.12,383.27l.15-.04c.13-.03,3.55,2.02,10.27,6.16l.04.15c-.91.23-1.98-.15-3.2-1.14.05.2-.03.33-.23.38l-.3.08c-.06-.23-2.16-1.53-6.32-3.92l-.42-1.67ZM358,384.3l6.51,4.03c-.02.33-.29.56-.8.69l-.3.08c-4.49-2.54-6.77-3.91-6.85-4.11l-.04-.15,1.48-.53ZM359.49,383.76l1.52-.38c.13-.03,2.54,1.41,7.23,4.34l.04.15-.15.04c-1.22.3-2.3.09-3.23-.65l-5.36-3.35-.04-.15ZM363.22,383.15l.15-.04c1.32-.33,2.98.28,4.98,1.83.13-.03,1.4.73,3.81,2.28-.28.29-.51.45-.68.49-.71.18-1.74-.27-3.08-1.33-.18.04-1.89-.98-5.14-3.08l-.04-.15ZM366.41,369.42l.42.38.15.61.04.8-.15.04-.72-.3c-.1-.95-.01-1.45.27-1.52ZM366.34,372.35c.15-.04.53.19,1.14.68l.15.61.04.8-.15.04c-.54-.11-.98-.37-1.33-.8-.13-.83-.08-1.27.15-1.33ZM366.41,375.24c.13-.03.7.31,1.71,1.03l.38,1.52-.15.04c-.23.03-.93-.39-2.09-1.25-.19-.76-.14-1.2.15-1.33ZM366.64,378.09c1.73,1,2.95,1.98,3.65,2.97l2.25.57,6.13,3.8c.05.2-.03.33-.23.38l-.46.11c-.76.19-1.73-.21-2.89-1.22-.2.05-.71-.25-1.52-.91-.18.04-1.76-.91-4.76-2.85-1.44-.58-2.26-1.29-2.47-2.13.05-.44.15-.68.3-.72ZM367.14,381.36c.16-.01,2.38,1.32,6.66,4-.09.51-.23.81-.42.91l-.3.08c-4.27-2.41-6.42-3.7-6.47-3.88.04-.47.22-.84.53-1.1ZM373.26,380.64l.15-.04c1.37-.34,2.53-.04,3.46.91.16-.01,1.87,1.01,5.14,3.08l.04.15-1.52.38c-4.78-2.71-7.18-4.16-7.23-4.34l-.04-.15ZM376.23,335.59c.13-.03,2.41,1.34,6.85,4.11.04.58.1,1.05.19,1.41l-.15.04c-4.53-2.59-6.81-3.96-6.85-4.11l-.27-1.07c-.03-.21.05-.34.23-.38ZM376.53,338.75l.15-.04c.13-.03,2.47,1.38,7.04,4.22l.38,1.52-.15.04c-4.62-2.64-6.97-4.05-7.04-4.22l-.38-1.52ZM377.07,379.69l1.06-.27c.13-.03,2.47,1.38,7.04,4.22l.04.15-1.52.38c-4.48-2.49-6.77-3.91-6.89-4.26l.27-.23ZM377.37,342.1l.15-.04c4.9,2.76,7.4,4.35,7.5,4.76l.3,1.22-.15.04c-4.62-2.51-6.99-4.02-7.12-4.53-.32-.41-.54-.89-.68-1.45ZM378.7,345.48l7.08,4.38.42,1.67-.31.08c-.06-.25-1.79-1.33-5.17-3.23-1.2-.48-1.96-1.37-2.28-2.66l.27-.23ZM379.61,349.14l.15-.04c.13-.03,2.47,1.38,7.04,4.22l.34,1.37c.05.2-.03.33-.23.38-.09-.25-1.62-1.21-4.6-2.89l-2.32-1.52-.38-1.52ZM380.07,378.78l1.22-.3c.13-.03,2.47,1.38,7.04,4.22l.04.15-1.52.38c-4.65-2.64-7-4.04-7.04-4.22l.27-.23ZM380.64,352.6l.15-.04c.13-.03,2.41,1.34,6.85,4.11l.34,1.37c.05.2-.03.33-.23.38-.12-.27-2.42-1.69-6.89-4.26l-.04-.8-.19-.76ZM381.29,355.83l.15-.04c.13-.03,2.54,1.41,7.23,4.34l.38,1.52-.3.08-6.85-4.11c-.04-.18-.25-.77-.61-1.79ZM382.31,359.29l.15-.04c.13-.03,2.47,1.38,7.04,4.22l.38,1.52-.3.08-6.66-3.99c-.15-.15-.25-.34-.31-.57l-.3-1.22ZM383.12,378.01l1.52-.38c.13-.03,2.41,1.34,6.85,4.11l-.38.42-.91.23c-4.65-2.64-7-4.04-7.04-4.22l-.04-.15ZM383.15,362.64l.15-.04c.13-.03,2.47,1.38,7.04,4.22l.38,1.52-.3.08-6.66-3.99c-.15-.15-.25-.34-.31-.57l-.3-1.22ZM383.99,365.99l.15-.04c.13-.03,2.47,1.38,7.04,4.22l.15.61c.13.53.06.88-.23,1.03-.09-.25-1.62-1.21-4.6-2.89-1.38-.76-2.11-1.33-2.21-1.71l-.3-1.22ZM384.64,369.22l.15-.04c.13-.03,2.47,1.38,7.04,4.22l.34,1.37c.05.2-.03.33-.23.38-.09-.25-1.62-1.21-4.6-2.89l-2.32-1.52-.38-1.52ZM385.47,372.57l.15-.04c4.9,2.76,7.4,4.35,7.5,4.76l.23.91-.08.34c-.2.05-1.28-.6-3.23-1.94-2.48-1.29-3.76-2.1-3.84-2.43-.37-.61-.58-1.04-.65-1.29l-.08-.3ZM386.5,376.04l.15-.04c.22.03,2.38,1.32,6.47,3.88l.08.31c-.1.46-.36.73-.76.84l-6.51-4.03c-.03-.13.16-.44.57-.95Z"/>
        <path class="cls-16" d="M406.82,325.35l4.26-1.07c1.52-.38,2.35-.32,2.47.19l.08.3c.6,4.11.98,6.49,1.14,7.15l.84,1.41c.25,1.77-.09,2.77-1.03,3.01-1.85.03-2.97.1-3.35.19l-.15.04c-.1.03-.77.35-2.02.99-.38.09-1.66.36-3.84.8-.27.63-.33,1.24-.19,1.83l.34,1.37c.15.61,1.75.53,4.79-.23,2.33-.69,4.22-1.32,5.67-1.9.63-.16,1.18.3,1.64,1.37.03,1.42.17,2.63.42,3.61l.42,1.67c.2.79.67,1.8,1.41,3.04-.03.65-.41,1.07-1.14,1.26-1.8.02-3.27.17-4.42.46l-.46.11c-3.35.84-4.88,1.81-4.6,2.93.06.25.11.89.15,1.9.28,1.12,1.48,1.41,3.61.88.76-.08,2.14-.37,4.15-.88l.61-.15c.86-.22,1.94-.65,3.23-1.29.54.03.88.27.99.72.1,1.16.38,2.92.84,5.29.3.76.56,1.61.8,2.55l.76,3.04c.18.71-.04,1.14-.65,1.29-.81.2-1.48.32-2.02.34-1.65.52-2.9.89-3.77,1.1-1.67.42-4.45.95-8.33,1.6-3.27.93-5.48,1.59-6.62,1.98-.81.1-2.04.35-3.69.76-1.71.05-2.61-.1-2.7-.46-.31-2.08-1.61-6.98-3.92-14.71-2.38-10.16-3.98-16.87-4.8-20.15l-.53-2.13c-.08-.3-.46-1.18-1.14-2.62-.1-1.59.32-2.5,1.26-2.74l.15-.04c2.54-.31,4.35-.6,5.44-.88,2.94-.95,7.57-2.27,13.89-3.96ZM399.63,374.21l.46-.11c.13-.03,2.47,1.38,7.04,4.22l.04.15-1.52.38c-.21.03-2.24-1.19-6.09-3.65l-.15-.61c-.03-.21.05-.34.23-.38ZM402.1,373.75l1.52-.38c.13-.03,2.41,1.34,6.85,4.11.05.2-.03.33-.23.38l-1.07.27c-.62-.22-2.97-1.63-7.04-4.22l-.04-.15ZM405.26,372.8l1.52-.38c.13-.03,2.47,1.38,7.04,4.22l-.27.23-1.22.3c-.21.03-2.56-1.38-7.04-4.22l-.04-.15ZM406.44,339.35l.15-.04c1.34-.34,2.37-.11,3.08.69l.04.15-.3.08c-1.29.32-2.27.08-2.93-.72l-.04-.15ZM408.42,371.85l1.52-.38c.13-.03,2.54,1.42,7.23,4.34l.04.15c-1.55.39-2.82.06-3.81-.99-.18.04-1.83-.94-4.95-2.97l-.04-.15ZM410.81,338.1l.3-.08c.13-.03.7.31,1.71,1.03l.04.15-1.22.3c-.53.13-1.08-.11-1.64-.72.03-.33.29-.56.8-.69ZM410.78,354.76c.52.35.79.56.8.61l.04.15-.76.19c-.2.05-.33-.03-.38-.23.05-.44.15-.68.3-.72ZM411,353.09l1.06-.27c.13-.03,1.21.61,3.24,1.94l.04.15-1.07.27c-.51.13-1.73-.43-3.65-1.67l.38-.42ZM411.96,371.13l.15-.04c1.37-.34,2.52-.04,3.46.91.16-.01,1.87,1.01,5.14,3.08l.04.15-1.52.38c-.65-.24-3.06-1.69-7.23-4.34l-.04-.15ZM413.17,337.83l.3-.08c1.44-.28,2.21-.2,2.32.23l.04.15-1.52.38c-.15.04-.53-.19-1.14-.69ZM413.7,352.25l1.52-.38c.13-.03,1.21.62,3.24,1.94.05.2-.03.33-.23.38l-1.06.27c-2.22-1.12-3.38-1.85-3.46-2.21ZM415.3,326.3c.13-.03,2.41,1.34,6.85,4.11l.3,1.22c.05.2-.03.33-.23.38l-6.89-4.26-.27-1.07c-.03-.21.05-.34.23-.38ZM415.61,329.46l.15-.04c4.51,2.51,6.82,3.98,6.93,4.41l.65,1.29.04.15-.15.04c-4.89-2.74-7.37-4.27-7.46-4.6-.03-.1-.08-.52-.15-1.25ZM415.68,370.52l1.52-.38c.13-.03,2.47,1.38,7.04,4.22l.04.15-1.52.38c-.85-.38-3.2-1.79-7.04-4.22l-.04-.15ZM416.9,335.93l.15-.04c.22.03,2.38,1.32,6.47,3.88l.08.3-.19.53c.64.41,1.01.8,1.1,1.18-.37-.09-3.1-1.73-8.18-4.91-.03-.13.16-.44.57-.95ZM416.82,333.04l.15-.04c.13-.03,2.41,1.34,6.85,4.11l.04.15-.04,1.14-.15.04c-.18.04-1.64-.83-4.38-2.62-.18.04-.94-.41-2.28-1.37l-.15.04c.01-.81,0-1.29-.04-1.45ZM417.47,351.8c1.6-.4,2.73-.2,3.39.61.25.02,3.29,1.85,9.13,5.48l.15.61.04.8-.15.04c-4.51-2.51-6.8-3.93-6.89-4.26-.43-1.72-1.66-2.33-3.69-1.83-.1-.41-.74-.79-1.9-1.14l-.08-.3ZM418.31,339.62l.15-.04c.13-.03,2.47,1.38,7.04,4.22l.27,1.07c.05.2-.03.33-.23.38-4.37-2.38-6.62-3.82-6.74-4.3-.09-.35-.25-.8-.5-1.33ZM419.11,342.82c.13-.03,2.41,1.34,6.85,4.11l.38,1.52-.15.04c-.18.04-2.52-1.36-7.04-4.22l-.27-1.07c-.03-.21.05-.34.23-.38ZM419.03,369.68l1.52-.38c.13-.03,2.41,1.34,6.85,4.11l.04.15-1.48.53-6.89-4.26-.04-.15ZM419.6,346.09l.15-.04c5.12,2.82,7.77,4.58,7.95,5.29l.15.61c.05.2-.03.33-.23.38-4.69-2.79-7.06-4.3-7.12-4.53-.44-.46-.74-1.03-.91-1.71ZM421.01,349.78l.15-.04c4.27,2.41,6.44,3.75,6.51,4.03-.09.51-.23.81-.42.91l-.15.04-6.43-3.73-.11-.46c-.04-.15.11-.41.46-.76ZM422.38,368.84l1.52-.38c.13-.03,2.41,1.34,6.85,4.11l-.38.42-.91.23c-.85-.38-3.2-1.79-7.04-4.22l-.04-.15ZM423.26,356.82l.15-.04c.13-.03,2.47,1.38,7.04,4.22l.38,1.52-.15.04c-4.65-2.64-7-4.05-7.04-4.22l-.38-1.52ZM424.21,359.98l7.08,4.38.38,1.52-.15.04c-4.62-2.54-7-4.04-7.12-4.53-.03-.1-.18-.5-.46-1.18l.27-.23ZM424.93,363.51l.15-.04c.13-.03,2.47,1.38,7.04,4.22l.3,1.22c.05.2-.02.33-.23.38-.03-.1-2.12-1.36-6.28-3.77l-.61-.5-.38-1.52ZM425.73,366.71c.22.03,2.38,1.32,6.47,3.88l.11.46c.04.15-.08.34-.34.57l-.46.11-6.32-3.92c.04-.47.22-.84.53-1.1Z"/>
        <path class="cls-16" d="M468.38,307.69l.8-.04c1.93-.59,3.64-1.07,5.14-1.45l.76-.19c.36-.09.81.01,1.37.3l2.89,15.45c1.17,4.67,2.21,6.89,3.12,6.66l.95-.08c.84-.32,1.53-.54,2.09-.68,1.04-.15,1.67.23,1.9,1.14.11,1.32.28,2.41.5,3.27l1.41,5.63c.46,1.83.33,2.83-.38,3.01l-2.13.53c-1.12.28-1.46,1.28-1.03,3.01l1.18,6.01c-.43.65-.87,1.03-1.33,1.14l-9.17,1.48-2.89.72c-.61.15-1.47-2-2.59-6.47-.48-.31-.84-.44-1.07-.38-2.18.55-3.93,1.09-5.25,1.64l-6.01,1.18c-1.62.62-2.92,1.05-3.88,1.29-1.02-.2-1.64-.75-1.87-1.64l.15-.04c-.31-.38-.62-1.17-.91-2.36l-.72-2.89c-.11-.43-.16-.85-.15-1.26-.25-.58-.9-2.52-1.94-5.82.2-2.31,1.47-7.16,3.8-14.54l2.02-9.4c-.28-1.12.34-1.86,1.86-2.25l8.37-2.09c.91-.23,1.91-.53,3.01-.91ZM457.11,351.71c.16-.01,2.51,1.46,7.05,4.42l-.27.23-1.22.3c-2.06-.89-4.42-2.38-7.11-4.49l1.54-.47ZM458.79,350.84l.15-.04c.86-.22,2.32.44,4.38,1.98.13-.03,1.4.73,3.81,2.28l.04.15-1.48.53-7.23-4.34c-.04-.15.08-.34.34-.57ZM461.88,350.23l1.37-.34c.13-.03,2.6,1.45,7.42,4.45l.04.15-1.52.38c-.23.03-2.76-1.44-7.57-4.41l.27-.23ZM464.19,332.35c.2.38.56.51,1.07.38.74-.18.93-1.36.57-3.54.09-.05.02-.57-.23-1.56l-.34-.08c-.81,1.07-1.17,2.66-1.07,4.79ZM465.83,349.24l.76-.19c2.86,1.52,4.34,2.5,4.45,2.93.13.1.27.44.42,1.03l.11.46-.3.08c-.03-.1-2.07-1.37-6.13-3.8l-.04-.15.72-.34ZM468.23,348.48l1.37-.34c.33.02.56.29.68.8l.23.91-.3.08c-.1.03-.74-.36-1.9-1.14l-.08-.3ZM476.13,354.55c.13-.03,2.4,1.41,6.82,4.32l.04.15c-.08.02-.37.15-.88.38-.99.25-3.52-1.21-7.6-4.37l1.62-.48ZM478.12,353.77c.84-.21,2.04.3,3.61,1.52.15-.04,1.74.91,4.76,2.85l.04.15c-1.52.38-2.59.22-3.2-.49-.05.01-1.76-1.01-5.14-3.08l-.15-.61.08-.34ZM478.05,307.42l3.42,2.18c.13-.03,1.46.77,4,2.4l.42,1.67-.15.04c-.05.01-2.53-1.5-7.44-4.53l-.24-1.76ZM478.88,310.89c.13-.03,2.6,1.45,7.42,4.45l.19,1.41-.46.11c-.03-.1-2.39-1.56-7.08-4.38l-.3-1.22c-.03-.21.05-.34.23-.38ZM479.18,314.05l.15-.04c.13-.03,2.6,1.45,7.42,4.45l.15.61c.13.51.09.79-.11.84-4.85-2.56-7.34-4.15-7.5-4.76l-.12-1.1ZM479.98,317.24c.13-.03,2.6,1.45,7.42,4.45.04.58.1,1.05.19,1.41l-.3.08c-4.76-2.77-7.19-4.27-7.27-4.49l-.27-1.06c-.03-.21.05-.34.23-.38ZM480.29,320.4l.15-.04c.13-.03,2.6,1.45,7.42,4.45l.34,1.37c.05.2-.02.33-.23.38-4.24-2.71-6.46-4.05-6.66-4-.04-.15-.24-.32-.61-.49l-.42-1.67ZM481.13,353.5l.46-.11c1.24-.31,2.35,0,3.31.95.13-.03,1.97,1.07,5.52,3.31l.04.15c-1.5.37-2.69.13-3.58-.72-.08.02-1.98-1.12-5.71-3.42l-.04-.15ZM481.32,323.86l.15-.04c.13-.03,1.46.77,3.99,2.4l.04.15-1.67.42c-1.34-.63-2.09-1.26-2.24-1.86l-.27-1.07ZM484.86,352.89l1.67-.42c.13-.03,2.6,1.45,7.42,4.45l-.27.23-.61.15c-.76.19-1.97-.32-3.62-1.52-.12-.02-1.64-.94-4.57-2.74l-.04-.15ZM487.1,342.47l1.22-.3c.13-.03,2.6,1.45,7.42,4.45l.04.15-.91.23-.72.34c-.18-.28-1.76-1.23-4.76-2.85-.03-.13-.87-.67-2.51-1.64l-.04-.15.27-.23ZM487.1,344.41l.15-.04c.13-.03,2.6,1.45,7.42,4.45l.19.76.04.8-.15.04c-4.92-2.87-7.41-4.4-7.46-4.6l-.19-1.41ZM488.05,350.8l.3-.08c.13-.03,2.54,1.41,7.23,4.34l.08.3c.04.15-.12.41-.46.76l-.3.08c-4.79-2.76-7.21-4.26-7.27-4.49.09-.51.23-.81.42-.91ZM487.75,347.64l.15-.04c.13-.03,2.6,1.45,7.42,4.45l.11.46.11,1.1-.3.08c-.03-.1-2.45-1.6-7.27-4.49l-.23-1.56ZM489.03,329.82l-.24-1.44c3.54,1.54,6.01,3.05,7.4,4.54l.23.91c.05.2-.03.33-.23.38-.11-.02-2.49-1.44-7.12-4.24l-.04-.15ZM489,331.32l.15-.04c.13-.03,2.6,1.45,7.42,4.45l.42,1.67-.15.04-7.42-4.45-.42-1.67ZM489.84,334.67l.15-.04c.13-.03,2.6,1.45,7.42,4.45l.42,1.67-.15.04c-2.55-1.46-5.02-2.95-7.42-4.45l-.42-1.67ZM490.91,340.87c.13-.03,2.54,1.41,7.23,4.34l.08.3c.02.32-.34.57-1.1.76-.03-.1-1.81-1.22-5.36-3.35-.96-.62-1.52-.91-1.67-.88l-.08-.3c.08-.45.38-.74.91-.88ZM490.68,338.02l.15-.04c.13-.03,2.6,1.45,7.42,4.45l.19.76.04.8-.31.08c-.03-.13-2.26-1.51-6.7-4.15-.25.06-.46-.1-.61-.5l-.19-1.41Z"/>
        <path class="cls-16" d="M514.72,298.37c1.24.12,5.91-.62,14-2.21l.3-.08c.96-.24,2.12-.58,3.46-1.03.43,0,.8-.04,1.1-.11,1.42-.57,3.51-1.26,6.28-2.06,1.48-.13,2.3.15,2.47.84.29,2.87.65,5.2,1.1,7l.34,1.37c.11.43.2,1,.27,1.71.13.08.28.47.46,1.18l.04.15-.3.72c-1.7.32-2.98.58-3.84.8l-.15.04c-.63.16-1.38.4-2.25.72h-.65c-2.54.63-3.69,1.41-3.46,2.32l.23.91c.2.81.86,1.08,1.98.8.94-.23,2.27-.51,4-.84,1.5-.7,2.42-1.09,2.78-1.18l.3-.08c.94-.1,1.51.24,1.71,1.03.05,1.07.2,2.11.46,3.12l.34,1.37c.41,1.62.91,3.22,1.52,4.79.15,1.15-.16,1.82-.95,2.02l-.34-.08c-.94.45-1.47.69-1.6.72-1.88.25-3.48.55-4.79.88l-.61.15c-1.12.28-1.47,1.23-1.06,2.85l.19.76c.5,2,1.3,4.98,2.4,8.94.18.74-.31,1.56-1.48,2.47-.46.11-2.69.46-6.7,1.03-2.13.75-3.63,1.23-4.49,1.45l-2.25.08-.15.04c-.66.38-1.04.58-1.14.61l-.3.08c-.36-.04-.77-.37-1.22-.99.42-.91-.36-5.3-2.32-13.16-.03-.1-.12-.24-.27-.42-.12-.89-.24-1.61-.38-2.17l-1.41-5.63c-.25-1.01-.47-2.31-.65-3.88-.18-.71-1.21-4.39-3.08-11.03-.94-3.75-.95-5.75-.04-5.97l.15-.04ZM526.18,342.88c.16-.01,2.25,1.24,6.28,3.77l.04.15-1.67.42-4.76-2.85-1.22-.99c.66-.27,1.1-.44,1.33-.49ZM527.78,342.16l1.37-.34c.13-.03,2.41,1.34,6.85,4.11l.08.31-1.37.34c-.18.04-1.7-.87-4.57-2.74-.1.03-.98-.46-2.63-1.44l.27-.23ZM532.27,340.71l6.89,4.26.04.15-1.67.42-6.66-3.99-.08-.31,1.48-.53ZM534.17,340.56l1.67-.42c.13-.03,2.54,1.41,7.23,4.34l.04.15c-1.57.39-2.84.06-3.81-.99-.18.04-1.64-.83-4.37-2.63-.45-.05-.69-.15-.72-.3l-.04-.15ZM535.42,309.36l.91-.23c.13-.03.44.16.95.57l.04.15-1.52.38c-.15.04-.34-.08-.57-.34l-.04-.15c-.03-.21.05-.34.23-.38ZM538.05,339.91l1.52-.38c.16-.01,2.38,1.32,6.66,4l.08.3-.72.34-.46.11c-.21.03-2.56-1.38-7.04-4.22l-.04-.15ZM538.16,308.67l1.52-.38c.13-.03.44.16.95.57-.28.29-.56.46-.84.53l-.61.15c-.13.03-.46-.21-.99-.72l-.04-.15ZM539.19,325.07c.13-.03,2.41,1.34,6.85,4.11l.34,1.37c.05.2-.03.33-.23.38-.09-.25-1.62-1.21-4.61-2.89l-2.32-1.52-.27-1.07c-.02-.21.05-.34.23-.38ZM539.68,328.35l.15-.04c.13-.03,2.47,1.38,7.04,4.22l.34,1.37c.05.2-.03.33-.23.38-.09-.25-1.62-1.21-4.6-2.89l-2.32-1.52-.38-1.52ZM540.45,324.27l.76-.19c.86-.22,2.13.33,3.8,1.64.13-.03,1.52.81,4.19,2.51l.04.15-.3.08c-1.24.31-2.35,0-3.31-.95-.18.04-1.89-.98-5.14-3.08l-.04-.15ZM541.55,337.74l6.32,3.92.08.3c-.1.46-.36.74-.76.84-.06-.12-2.21-1.41-6.47-3.88l-.08-.3c.36-.52.66-.81.91-.88ZM540.71,331.81l.15-.04c.13-.03,2.47,1.38,7.04,4.22l.38,1.52-.3.08c-2.27-1.43-4.49-2.76-6.66-4-.15-.15-.25-.34-.3-.57l-.3-1.22ZM541.32,307.72l.76-.19c.79-.2,1.29-.11,1.52.27l.04.15-1.52.38c-.15.04-.41-.11-.76-.46l-.04-.15ZM541.55,335.16l.15-.04c.13-.03,2.41,1.34,6.85,4.11l.08.3c.13.53.06.88-.23,1.03-4.38-2.43-6.62-3.82-6.7-4.15-.08-.76-.13-1.18-.15-1.26ZM543.9,294.14l.46-.11c.16-.01,2.25,1.24,6.28,3.77l.23,1.56-.3.08c-.06-.25-1.54-1.18-4.42-2.78l-2.32-1.52-.15-.61c-.03-.21.05-.34.23-.38ZM543.94,296.88l.3-.08c4.52,2.56,6.82,3.98,6.89,4.26.02.08.07.49.15,1.25l-.15.04c-4.53-2.59-6.81-3.96-6.85-4.11l-.34-1.37ZM544.17,323.67l1.52-.38c.13-.03,2.41,1.34,6.85,4.11l.04.15-1.67.42-6.66-3.99-.08-.3ZM544.55,299.96l.15-.04c.13-.03,2.47,1.38,7.04,4.22l.38,1.52-.15.04c-4.62-2.64-6.97-4.05-7.04-4.22l-.38-1.52ZM545.77,306.12l6.32,3.92.08.3c-.1.46-.36.74-.76.84-.03-.1-2.05-1.32-6.09-3.65l-.61-.49c.51-.56.86-.86,1.07-.91ZM545.39,303.31l.15-.04c.12-.03,2.47,1.38,7.04,4.22l.23.91c.04.15-.08.34-.34.57l-6.7-4.15-.38-1.52ZM545.73,309.21l.15-.04c4.77,2.69,7.19,4.18,7.27,4.49.15.82.1,1.27-.15,1.33-2.27-1.43-4.49-2.76-6.66-3.99-.17-.68-.37-1.28-.61-1.79ZM546.38,312.44l.15-.04c.13-.03,2.47,1.38,7.04,4.22l.34,1.37c.05.2-.03.33-.23.38-.09-.25-1.62-1.21-4.6-2.89l-2.32-1.52-.38-1.52ZM548.44,321.95l6.32,3.92.04.15c.04.15-.08.34-.34.57l-.61.15c-4.39-2.49-6.61-3.82-6.66-4,.3-.4.72-.67,1.26-.8ZM547.22,315.79l.15-.04c4.76,2.66,7.2,4.21,7.3,4.64l.34,1.37c-.21.03-2.37-1.27-6.47-3.88-.51.13-.95-.57-1.33-2.09ZM548.43,319.37l.15-.04c.13-.03,2.41,1.34,6.85,4.11.1.84.05,1.28-.15,1.33-4.38-2.43-6.61-3.82-6.7-4.15l-.04-.15-.12-1.1Z"/>
        <path class="cls-16" d="M554.67,288.7c1.67.01,5.07-.62,10.2-1.9l.91-.23c.35-.09,1.19-.41,2.51-.95.5.28,1.05,1.6,1.64,3.96l.23.91c1.39,8.14,3.86,19.33,7.42,33.56-.08.02,0,.75.23,2.21l.38.87.19.76c.06.23-.16.44-.65.65-.76-.02-1.39.02-1.9.15l-2.59.65c-1.12.28-3.97,1.16-8.56,2.63-.97,0-1.62-.65-1.94-1.94l-.65-2.59c-.67-3.98-1.24-6.91-1.71-8.79-.18-.71-.33-1.1-.46-1.18-.16-1.07-.31-1.89-.46-2.47l-2.93-11.72c-.04-.15-.14-.99-.3-2.51l-2.02-8.07c-.11-.43-.2-1-.27-1.71l-.57-.99c-.13-.53.3-.96,1.29-1.29ZM566.05,332.91l.46-.11c.13-.03,2.41,1.34,6.85,4.11.05.2-.03.33-.23.38l-1.06.27c-.21.03-2.24-1.19-6.09-3.65l-.67-.56c.32-.24.56-.38.74-.43ZM569.63,331.69l6.89,4.26.04.15-1.22.3c-.38.09-1.29-.32-2.74-1.26l-4.57-2.74c.35-.3.89-.55,1.6-.72ZM571.03,287.52l.46-.11c.16-.01,2.25,1.24,6.28,3.77l.34,1.37c.05.2-.03.33-.23.38-.09-.25-1.62-1.21-4.61-2.89l-2.32-1.52-.15-.61c-.02-.21.05-.34.23-.38ZM571.42,331.08l1.22-.3c.12-.03,2.47,1.38,7.04,4.22l.04.15-1.67.42-6.85-4.11-.04-.15.27-.23ZM571.41,290.33l.15-.04c.13-.03,2.47,1.38,7.04,4.22l.11.46.11,1.1-.3.08c-.06-.25-1.53-1.18-4.41-2.78l-2.32-1.52-.38-1.52ZM572.06,293.57l.15-.04c.13-.03,2.41,1.34,6.85,4.11l.38,1.52-.15.04c-4.65-2.64-7-4.04-7.04-4.22l-.15-.61-.04-.8ZM572.82,296.61l6.89,4.26.34,1.37-.3.08c-4.52-2.56-6.8-3.93-6.85-4.11l-.3-1.22c-.02-.21.05-.34.23-.38ZM573.17,299.92l.15-.04c.13-.03,2.47,1.38,7.04,4.22l.38,1.52-.15.04c-.85-.38-3.2-1.79-7.04-4.22l-.38-1.52ZM574,303.27l.15-.04c.13-.03,2.41,1.34,6.85,4.11l.38,1.52-.15.04-7-4.07-.04-.8-.19-.76ZM574.46,330.32l1.52-.38c.13-.03,2.54,1.42,7.23,4.34l.04.15c-1.74.38-2.69.24-2.85-.42-3.88-2.13-5.85-3.36-5.94-3.69ZM574.65,306.5l.15-.04c.13-.03,2.47,1.38,7.04,4.22l.38,1.52-.15.04c-.62-.22-2.97-1.63-7.04-4.22l-.38-1.52ZM575.49,309.85l.15-.04c.13-.03,2.47,1.38,7.04,4.22l.38,1.52-.15.04c-.62-.22-2.97-1.63-7.04-4.22l-.38-1.52ZM576.32,313.2l.15-.04c.13-.03,2.47,1.38,7.04,4.22l.38,1.52-.15.04c-.62-.22-2.97-1.63-7.04-4.22l-.38-1.52ZM577.16,316.55l.15-.04c.12-.03,2.47,1.38,7.04,4.22l.38,1.52-.15.04c-.62-.22-2.97-1.63-7.04-4.22l-.38-1.52ZM578.15,319.86c.13-.03,2.41,1.34,6.85,4.11l.38,1.52-.15.04c-.21.03-2.56-1.38-7.04-4.22l-.27-1.06c-.03-.21.05-.34.23-.38ZM579.48,329.06l6.32,3.92.04.15c.04.15-.08.34-.34.57l-.76.19c-2.27-1.43-4.49-2.76-6.66-3.99.46-.44.93-.72,1.41-.84ZM578.65,323.13l.15-.04c.13-.03,2.41,1.34,6.85,4.11l.38,1.52-.15.04c-4.63-2.56-6.99-4.02-7.08-4.38-.03-.1-.08-.52-.15-1.26ZM579.29,326.36l.15-.04c.13-.03,2.47,1.38,7.04,4.22l.11.46.04.8c-.48.12-1.85-.61-4.11-2.21-.18.04-1.13-.53-2.85-1.71l-.38-1.52Z"/>
        <path class="cls-16" d="M605.73,274.96c.79-.09,2.16-.43,4.11-1.03,1.26-.13,2,.23,2.21,1.06.09,1.65.39,3.51.91,5.59l.8,3.2c.2.81.53,1.7.99,2.66-.13.79-.5,1.26-1.1,1.41l-5.02,1.26c-.81.2-1.04,1.01-.68,2.44-.11.84.62,4.43,2.21,10.77.34,1.37,2.05,6.49,5.14,15.37-.08.88-.84,1.5-2.28,1.87l-1.52.38c-.56.14-3.63.58-9.21,1.33-.96.24-2.01.61-3.12,1.1-.58.15-1.38-.25-2.4-1.18-1.1-7.41-2.84-15.87-5.21-25.38.1-.03.03-.55-.23-1.56-.18-.71-1.03-.88-2.55-.49-2.11.74-3.5,1.2-4.19,1.37-1.12.28-2.18-1.61-3.2-5.67-.28-1.98-.7-4.08-1.26-6.32-.17-.68.07-1.23.72-1.64l1.41-.19c1.5-.37,9.32-2.49,23.48-6.36ZM588.35,295.31l.3-.08c.13-.03.7.31,1.71,1.03l.34,1.37c.05.2-.03.33-.23.38-1.29-.84-2.48-1.51-3.58-2.02l1.18-.46.27-.23ZM602.16,323.39l.15-.04c.16-.01,2.31,1.28,6.47,3.88l.08.3-1.37.34c-2.94-1.39-5.21-2.78-6.82-4.16l1.49-.33ZM603.04,322.37c1.6-.4,2.98-.04,4.15,1.07.16-.01,1.87,1.01,5.14,3.08l.04.15c-1.57.39-2.96.04-4.15-1.07-3.27-1.98-4.97-2.96-5.1-2.93l-.08-.31ZM606.96,321.87c1.6-.4,2.98-.04,4.15,1.07.16-.01,1.87,1.01,5.14,3.08l.04.15-.15.04c-1.34.34-2.29.2-2.85-.42l-6.28-3.77-.04-.15ZM608.97,290.48l.15-.04c.13-.03,2.6,1.45,7.42,4.45l.3,1.22c.05.2-.03.33-.23.38l-.15.04c-.05-.2-2.46-1.65-7.23-4.34l-.11-1.1-.15-.61ZM609.43,293.6l.15-.04c.12-.03,2.6,1.45,7.42,4.45l.38,1.52-.3.08-7.23-4.34-.42-1.67ZM610.11,296.99l.3-.08c.13-.03,2.54,1.41,7.23,4.34l.34,1.37c.05.2-.03.33-.23.38-.72-.6-3-1.97-6.85-4.11-.29-.28-.46-.56-.53-.84l-.27-1.07ZM610.6,289.91l1.68-.42c.12-.03,2.6,1.45,7.42,4.45l.04.15-1.67.42c-.08.02-2.55-1.46-7.42-4.45l-.04-.15ZM610.91,300.18l.15-.04c.13-.03,2.6,1.45,7.42,4.45l.34,1.37c.05.2-.03.33-.23.38-.72-.6-3-1.97-6.85-4.11-.29-.28-.46-.56-.53-.84l-.3-1.22ZM611.03,321.34l1.52-.38c.13-.03,2.6,1.45,7.42,4.45l.04.15-1.67.42c-.08.02-2.49-1.43-7.23-4.34l-.07-.3ZM611.75,303.53l.15-.04c4.89,2.74,7.39,4.32,7.5,4.76.2.35.36.8.5,1.33l-.3.08-7.04-4.22c-.15.04-.42-.6-.8-1.9ZM612.97,307.11l.15-.04c4.89,2.74,7.39,4.32,7.5,4.76.13.1.27.44.42,1.03l.12.46-.15.04c-.08.02-1.47-.82-4.19-2.51-2.1-1.06-3.23-1.91-3.39-2.55-.06-.25-.22-.65-.46-1.18ZM613.91,279.22l.15-.04c.13-.03,2.6,1.45,7.42,4.45l.42,1.67-.3.08c-.03-.1-2.45-1.6-7.27-4.49l-.42-1.67ZM613.92,277.48v-1.29c1.72.94,4.09,2.39,7.11,4.33l.23,1.56-.15.04c-2.75-1.6-5.12-3.05-7.11-4.33l-.08-.3ZM615.4,288.39l7.27,4.49c.04.15-.08.34-.34.57l-.91.23-7.42-4.45-.04-.15c.1-.02.58-.25,1.45-.69ZM614.37,310.8l.15-.04c4.76,2.66,7.2,4.21,7.31,4.64.13.1.27.44.42,1.03l.08.3-.3.08c-4.76-2.77-7.19-4.27-7.27-4.49l-.38-1.52ZM615.21,319.97l.3-.08c.13-.03,2.6,1.45,7.42,4.45-.36.41-.82.69-1.41.84-4.11-2.64-6.27-3.93-6.47-3.88l-.61-.49-.04-.15c.03-.33.29-.56.8-.68ZM614.75,282.56l.15-.04c.13-.03,2.6,1.45,7.42,4.45l.42,1.67-.3.08c-.03-.13-1.5-1.05-4.41-2.78-1.85-.94-2.84-1.66-2.97-2.17l-.3-1.22ZM615.4,314.26l.15-.04c4.89,2.74,7.39,4.33,7.5,4.76.13.1.27.44.42,1.03l.12.46-.3.08c-.03-.1-2.13-1.41-6.32-3.92-.72-.3-1.24-1.09-1.56-2.36ZM615.97,286.14l.15-.04c.13-.03,2.6,1.45,7.42,4.45l.15.61c-.14.3-.19.53-.15.69l-.15.04c-.23.03-2.7-1.4-7.38-4.3-.06-.25-.08-.74-.04-1.45ZM616.47,317.88l.3-.08c.13-.03,2.54,1.41,7.23,4.34l.15.61c.04.15-.11.41-.46.76l-7.42-4.45c.18-.58.24-.98.19-1.18Z"/>
        <path class="cls-16" d="M285.56,410.17c.86-.22,1.95-.38,3.27-.5.1-.03.14-.09.12-.19,5.79-.96,8.92-.56,9.36,1.22.92,5.38,1.49,9.17,1.71,11.38l.3,1.22c.04.15-.08.34-.34.57l-.15.04c-.2.05-1.07-.17-2.59-.65-.41,0-.83.04-1.26.15l-.61.15c-2.56.64-4.48,2.25-5.75,4.83-.59,3.25-.64,5.85-.15,7.8,1.57,3.7,3.98,5.15,7.23,4.34,1.62-.41,2.7-.62,3.23-.65,1.67-.42,3.35-1.27,5.02-2.55.3.35.51.52.61.49.43,2.59.79,4.44,1.07,5.56.77,3.1,1.57,5.21,2.4,6.35l.08.3c.09.36-1.28,1.13-4.11,2.32-.32.43-2.55,1.42-6.7,2.97-1.98.5-5.42.55-10.31.15-2.39-.62-4.71-1.49-6.96-2.62-4.06-2.89-6.78-7.06-8.14-12.52-1-4.01-1.09-8.46-.27-13.36,1.1-4.34,2.26-7.22,3.5-8.64-.3-1.19,2.4-3.75,8.1-7.69.53-.24.98-.4,1.33-.49ZM283.24,456.51c.13-.03,1.9,1.03,5.33,3.2l-.15.04c-1.79-.36-3.49-1.34-5.1-2.93l-.08-.3ZM284.91,456.09l.31-.08c1.59,0,4.38,1.25,8.37,3.73l2.7,1.75-.61.15c-1.12.28-3.63-.93-7.53-3.61-1.13-.53-2.21-1.17-3.23-1.94ZM290.35,432.58l.3-.08c.16-.01,2.38,1.32,6.66,3.99l.23.91c.04.15-.08.34-.34.57-4.43-2.64-6.68-4.07-6.74-4.3l-.11-1.1ZM290.96,429.84c.16-.01,2.38,1.32,6.66,4-.05.77-.17,1.17-.34,1.22l-.15.04-6.51-4.03c-.14-.56-.03-.96.34-1.22ZM290.58,435.43l.15-.04c.16-.01,2.19,1.21,6.09,3.65l.04.15-.76.19c-.76.19-1.95-.27-3.58-1.37-1.01-.58-1.62-1.29-1.83-2.13l-.11-.46ZM291.53,427.59l.31-.08c.22.03,2.38,1.32,6.47,3.88l.04.15c.03.13-.16.44-.57.95-4.36-2.47-6.58-3.8-6.66-3.99.09-.51.23-.81.42-.91ZM291.46,457.04l.15-.04c1.32-.33,3.04.32,5.18,1.94.13-.03,1.52.81,4.18,2.51l-.61.15c-1.17.29-2.98-.49-5.44-2.36-2.22-1.12-3.37-1.85-3.46-2.21ZM293.82,425.73l6.51,4.03c-.02.33-.29.56-.8.69l-.3.08c-4.25-2.36-6.42-3.7-6.51-4.03l-.04-.15c.33-.3.71-.5,1.14-.61ZM295.22,424.89l1.22-.3c.13-.03,2.98,1.68,8.56,5.14l.04.15c-.33.08-1.19-.13-2.59-.65-.61.15-2.09-.61-4.45-2.28-.88-.37-1.89-.98-3.04-1.83l.27-.23ZM295.99,457.04l.46-.11c1.24-.31,2.41.04,3.5,1.07.25.02,1.89,1.01,4.95,2.97l.04.15-.76.19c-.89.22-2.35-.44-4.37-1.98-.2.05-1.47-.71-3.81-2.28ZM299.41,409.94l.15-.04c.71-.18,3.01,1.03,6.89,3.61l.15.61.04.8-.3.08-6.66-4-.27-1.06ZM300.97,455.63l6.7,4.15.04.15-.72.34-.61.15c-4.52-2.56-6.8-3.93-6.85-4.11.12-.16.6-.39,1.45-.69ZM300.05,412.52c.13-.03,2.41,1.34,6.85,4.11l.34,1.37c.05.2-.03.33-.23.38-.09-.25-1.62-1.21-4.6-2.89l-2.32-1.52-.27-1.07c-.03-.21.05-.33.23-.38ZM301.31,424.66c.22.03,2.38,1.32,6.47,3.88.04.15-.11.41-.46.76l-.46.11c-.18.04-1.51-.75-4-2.4-1.83-1.05-2.82-1.56-2.97-1.52l-.08-.3,1.48-.53ZM300.4,415.83l.3-.08c.16-.01,2.38,1.32,6.66,4l.38,1.52-.15.04c-4.64-2.59-6.99-4.04-7.08-4.37l-.12-1.1ZM301.01,418.92l.15-.04c.13-.03,2.41,1.34,6.85,4.11.1.84.05,1.28-.15,1.33-.18.04-2.4-1.29-6.66-4l-.08-.3-.11-1.1ZM301.27,421.92l.15-.04c.13-.03,2.47,1.38,7.04,4.22.18.74.13,1.18-.15,1.33-.18.04-2.4-1.29-6.66-4l-.38-1.52ZM302.72,454.87l1.06-.27c.13-.03,2.41,1.34,6.85,4.11l-.38.42-.91.23c-.24,0-2.52-1.36-6.85-4.11-.03-.21.05-.34.23-.38ZM305.92,453.43l.46-.11c.16-.01,2.38,1.32,6.66,3.99-.36.41-.83.69-1.41.84-.06-.25-2.23-1.6-6.51-4.03.03-.33.29-.56.8-.69ZM307.55,439.92l.15-.04c.16-.01,2.38,1.32,6.66,3.99l.08.31.12,1.1-.15.04c-.18.04-2.46-1.32-6.85-4.11l-.23-.91c-.03-.21.05-.34.23-.38ZM308.35,452.17l.61-.15c.16-.01,2.38,1.32,6.66,3.99l.08.31-.72.34-.46.11c-4.53-2.59-6.81-3.96-6.85-4.11l-.04-.15.72-.34ZM307.82,442.92l.15-.04c4.64,2.59,7.01,4.1,7.12,4.53.2.36.36.8.49,1.33l-.15.04c-4.74-2.59-7.19-4.19-7.34-4.79l-.27-1.07ZM309.45,438.47l.46-.11c2.47,1.24,3.77,2.16,3.92,2.74l.04.15.04.8-.15.04c-.18.04-1.89-.98-5.14-3.08.28-.29.56-.46.84-.53ZM308.85,446.39l.15-.04c5,2.74,7.58,4.46,7.76,5.17.15.15.26.39.34.72l.08.3-.15.04c-5.11-2.76-7.76-4.53-7.95-5.29l-.23-.91ZM310.29,450.23l.3-.08c.22.02,2.38,1.32,6.47,3.88l.11.46c.04.15-.08.34-.34.57l-.46.11-6.32-3.92c.18-.56.26-.9.23-1.03Z"/>
        <path class="cls-16" d="M349.74,395.24c.5.06.93.28,1.29.65l.11.46c.04.15.14.99.3,2.51.08.3.38.88.91,1.71.2,2.54.63,5.56,1.29,9.06l.53,1.48.19,2.7c.57,1.85,1.02,3.41,1.33,4.68l1.18,4.72c.28,1.12.88,4.15,1.79,9.09.29.71.58,1.66.88,2.85.63,3.08.76,4.66.38,4.76l-.46.11c-1.7,0-3.73.29-6.09.88l-8.07,2.02c-.56.14-1.03-.01-1.41-.46.32-.86.45-1.43.38-1.71-1.17-4.26-2.02-7.44-2.55-9.55-.61-2.43-1.37-3.54-2.28-3.31-1.83.35-3.36.68-4.6.99l-.46.11c-1.22.3-1.66,1.12-1.33,2.43.74,3.4,1.43,6.79,2.06,10.16.06.23.53,1.03,1.41,2.4-.41.53-.66.81-.76.84-.46.11-1.59.34-3.39.68-4.34,1.19-7.01,1.92-8.03,2.17l-1.56.88c-1.67.23-2.57.08-2.7-.46.29-.99.34-1.86.15-2.62-.75-2.99-1.58-6.56-2.51-10.69-2.6-9.54-5.02-17.93-7.27-25.19l-.61-2.43c-.2-.79.3-1.39,1.49-1.83,1.24.23,2.67.14,4.3-.27l10.2-2.55c1.01-.25,1.61-.02,1.79.69.25,5.76.6,9.5,1.03,11.22l.11.46c.28,1.12.88,1.56,1.79,1.33l6.09-1.52c.91-.23,1.23-.9.95-2.02l-.27-1.07c-.13-.51-.67-3.12-1.64-7.84l-.38-1.52c-.03-.13-.27-.66-.72-1.6l-.08-.31c.25-.71.68-1.14,1.29-1.29.86.11,1.46.12,1.79.04,2.84-.71,6.89-1.99,12.14-3.84ZM323.57,450.3l.15-.04c.16-.01,2.19,1.21,6.09,3.65.05.2-.02.33-.23.38l-.61.15c-.61.15-2.47-.84-5.59-2.97l-1.3-.85c.77-.17,1.27-.28,1.49-.33ZM324.68,448.9l1.07-.27c.13-.03,2.47,1.38,7.04,4.22l.04.15-1.52.38c-4.52-2.56-6.8-3.93-6.85-4.11-.03-.21.05-.34.23-.38ZM327.57,448.17l1.52-.38c.13-.03,2.41,1.34,6.85,4.11l.04.15-1.03.42-.3.08c-.85-.38-3.2-1.79-7.04-4.22l-.04-.15ZM328.97,405.29l.31-.08c.16-.01,2.19,1.2,6.09,3.65l.38,1.52-.3.08-6.13-3.8-.34-1.37ZM329.05,408.18l.3-.08c.13-.03,2.41,1.34,6.85,4.11.18.74.13,1.18-.15,1.33-4.38-2.43-6.61-3.82-6.7-4.15l-.3-1.22ZM329.47,411.15l.15-.04c.15-.04,1.67.88,4.57,2.74l.04.15-1.52.38c-1.99-1.04-3-1.65-3.04-1.83l-.15-.61-.04-.8ZM329.58,403.85l1.52-.38c.13-.03,1.4.73,3.81,2.28l.15.61c.13.51.09.79-.12.84-.18.04-1.95-1.02-5.33-3.2l-.04-.15ZM329.92,414.27l.15-.04c.15-.04.41.11.76.46l.04.15-.46.11c-.2.05-.33-.02-.38-.23l-.11-.46ZM330.73,447.22l.46-.11c.1-.03.17.01.19.11l.27-.23.61-.15c.13-.03,2.47,1.38,7.04,4.22l.04.15-1.52.38c-.62-.22-2.97-1.63-7.04-4.22l-.04-.15ZM334.26,446.5l1.52-.38c.13-.03,2.41,1.34,6.85,4.11.05.2-.02.33-.23.38l-1.07.27c-.85-.38-3.2-1.79-7.04-4.22l-.04-.15ZM334.3,431.13l.15-.04c.13-.03,2.47,1.38,7.04,4.22.04.58.1,1.05.19,1.41l-.15.04c-4.53-2.59-6.81-3.96-6.85-4.11l-.38-1.52ZM334.95,434.36l.15-.04c.13-.03,2.47,1.38,7.04,4.22l.38,1.52-.15.04c-4.62-2.64-6.97-4.05-7.04-4.22l-.38-1.52ZM335.33,430.06l1.52-.38c.13-.03,1.4.73,3.81,2.28l.38,1.52-.15.04c-2.11-1.12-3.95-2.22-5.52-3.31l-.04-.15ZM335.63,437.75l.3-.08c.16-.01,2.38,1.32,6.66,4l.08.3.11,1.1-.15.04c-.18.04-2.4-1.29-6.66-3.99l-.34-1.37ZM336.55,440.75c5.07,3.04,7.65,4.72,7.72,5.02l.38.88.04.15c.05.2-.03.33-.23.38l-.15.04c-.06-.25-1.54-1.18-4.41-2.78-2.11-1.12-3.32-2.27-3.62-3.46l.27-.23ZM337.95,444.44l6.32,3.92.08.3c-.1.46-.31.72-.61.8-.21.03-2.43-1.31-6.66-3.99.18-.58.47-.93.87-1.03ZM338.87,429.34l.61-.15c.21-.03.34.05.38.23l.15.61-.15.04c-.13.03-.44-.16-.95-.57l-.04-.15ZM347.39,444.67l.15-.04c.16-.01,2.12,1.17,5.9,3.54l.04.15-1.52.38c-3.13-1.72-4.71-2.68-4.76-2.85l-.04-.15c-.08-.63,0-.97.23-1.03ZM348.23,443.49l1.52-.38c.13-.03,2.47,1.38,7.04,4.22l.04.15-1.52.38c-4.65-2.64-7-4.04-7.04-4.22l-.04-.15ZM351.58,442.65l1.52-.38c.13-.03,2.47,1.38,7.04,4.22l.04.15-1.52.38c-4.65-2.64-6.99-4.04-7.04-4.22l-.04-.15ZM352.75,396.92l.46-.11c4.14,2.33,6.25,3.64,6.32,3.92.03.56.06.88.08.95.15.18.24.32.27.42l-.15.04c-4.65-2.64-6.99-4.04-7.04-4.22l-.15-.61c-.03-.21.05-.33.23-.38ZM353.51,399.96l.15-.04c.13-.03,2.41,1.34,6.85,4.11l.27,1.07c.05.2-.03.33-.23.38l-6.81-3.96-.04-.8-.19-.76ZM354.12,403.04c.13-.03,2.41,1.34,6.85,4.11l.08.3.12,1.1-.15.04c-4.52-2.56-6.8-3.93-6.85-4.11l-.27-1.07c-.03-.21.05-.34.23-.38ZM354.58,406.16c.13-.03,2.41,1.34,6.85,4.11l.27,1.07c.05.2-.03.33-.23.38-.24,0-2.52-1.36-6.85-4.11l-.27-1.07c-.03-.21.05-.33.23-.38ZM354.88,409.32l.15-.04c.13-.03,2.54,1.41,7.23,4.34l.23.91c.04.15-.08.34-.34.57-4.43-2.64-6.68-4.07-6.74-4.3-.12-.48-.3-.98-.53-1.48ZM354.92,441.82c1.5-.37,2.7-.08,3.61.87.16-.01,1.87,1.02,5.14,3.08l.04.15-1.07.27c-.61.15-3.17-1.25-7.69-4.22l-.04-.15ZM355.53,412.56l.15-.04c.13-.03,2.41,1.34,6.85,4.11l.38,1.52-.15.04c-.18.04-2.52-1.36-7.04-4.22l-.19-1.41ZM356.37,415.91l.15-.04c.13-.03,2.47,1.38,7.04,4.22l.38,1.52-.15.04c-.18.04-2.52-1.36-7.04-4.22l-.38-1.52ZM357.2,419.25l.15-.04c.13-.03,2.47,1.38,7.04,4.22l.38,1.52-.15.04c-.18.04-2.52-1.36-7.04-4.22l-.38-1.52ZM358.04,422.6l.15-.04c.13-.03,2.47,1.38,7.04,4.22l.38,1.52-.15.04c-.18.04-2.52-1.36-7.04-4.22l-.38-1.52ZM358.73,425.99l.3-.08c.13-.03,2.41,1.34,6.85,4.11l.15.61c.13.51.09.79-.11.84-.18.02-2.47-1.35-6.85-4.11l-.34-1.37ZM359.19,441.4l1.37-.34c.16-.01,2.38,1.32,6.66,3.99-.03.33-.29.56-.8.69l-.3.08c-.18.04-1.7-.87-4.57-2.74-.1.03-.98-.46-2.63-1.45l.27-.23ZM359.34,429.07l.15-.04c.13-.03,2.47,1.38,7.04,4.22l.27,1.07c.05.2-.03.33-.23.38l-.15.04-6.66-3.99-.42-1.67ZM360.17,432.42l.15-.04c.13-.03,2.47,1.38,7.04,4.22l.38,1.52-.15.04c-.2.05-1.66-.82-4.38-2.62-.1.03-.98-.46-2.63-1.45l-.42-1.67ZM361.01,435.77l.15-.04c.13-.03,2.41,1.34,6.85,4.11l.27,1.07c.04.15-.08.34-.34.57-.09-.25-1.62-1.21-4.61-2.89-1.38-.76-2.11-1.33-2.21-1.71l-.11-1.1ZM361.47,438.89l.15-.04,6.81,3.96c.1.84-.05,1.31-.46,1.41-.02-.08-1.92-1.22-5.71-3.42l-.8-.61c.04-.71.04-1.14,0-1.29Z"/>
        <path class="cls-16" d="M390.99,384.93c.05-.01.24-.11.57-.3,1.62-.41,2.63.15,3.01,1.67.46,1.83,3.16,7.67,8.11,17.54,3.69,7,7.51,13.65,11.46,19.94l.04.15c.04.15-.08.34-.34.57l-.15.04c-.94.23-1.81.4-2.62.5-.08.02-.37.15-.88.38l-1.41.19-8.71,2.66c-2.03.08-3.36-1.15-4-3.69-.39-1.55-1.06-2.3-2.02-2.25-.66.38-1.38.72-2.17,1.03l-1.56.23c-1.72.43-2.64,1.31-2.74,2.63-.69,1.98-.88,3.59-.57,4.83-.51,1.21-.82,1.82-.95,1.85l-.76.19c-3.81.52-6.03.86-6.66,1.02-.86.32-1.79.72-2.78,1.18l-.68-.15c-.63.27-1.28.48-1.94.65l-.3.08c-.15.04-.34-.08-.57-.34-.1-3.4-.27-6.05-.53-7.95.26-1.87.17-5.03-.27-9.47l1.22-18.42c.2-3.96.23-6.18.11-6.66-.29-1.17-.13-2.02.5-2.55.79-.95,2.57-1.78,5.37-2.47-.03-.1,1.01-.47,3.12-1.1,4.64-.94,7.69-1.6,9.13-1.96ZM374.48,436.6c.84-.21,2.87.79,6.09,3.01.13-.03.76.35,1.9,1.14.05.2-.02.33-.23.38l-.3.08c-.89.22-2.35-.44-4.38-1.98-.2.05-1.28-.6-3.24-1.94l-.08-.3c-.03-.21.05-.34.23-.38ZM377.53,436.16l1.22-.3c.13-.03,2.47,1.38,7.04,4.22l.04.15c-1.55.39-2.82.06-3.8-.99-.79-.34-2.37-1.29-4.76-2.85l.27-.23ZM380.61,435.23l.3-.08c1.22-.3,2.96.39,5.21,2.09.13-.03,1.4.73,3.8,2.28l.04.15-.3.08c-1.14.29-3-.44-5.56-2.17l-3.46-2.21-.04-.15ZM384.65,434.75l1.52-.38c.16-.01,2.38,1.32,6.66,4-.03.33-.29.56-.8.69-.38.09-1.29-.32-2.74-1.26-2.97-1.84-4.49-2.76-4.57-2.74l-.08-.31ZM386.92,411.34l.08.3c.15.61.53.84,1.14.69l.15-.04c.79-.28,1.11-.74.95-1.37-.54-1.29-1.11-2.5-1.71-3.62l-.3.08c-.43.11-.53,1.43-.3,3.96ZM387.72,432.64l.15-.04c.22.02,2.38,1.32,6.47,3.88.05.63-.03.98-.23,1.03l-.31.08c-4.25-2.36-6.42-3.7-6.51-4.03.09-.51.23-.81.42-.91ZM388.22,430.09l.15-.04,6.81,3.96c.08.84-.03,1.3-.3,1.37-.18.04-2.4-1.29-6.66-3.99.04-.71.04-1.14,0-1.29ZM388.56,427.58l.3-.08c4.27,2.41,6.44,3.75,6.51,4.03-.03.44-.2.81-.53,1.1-.03-.1-2.06-1.32-6.09-3.65l-.42-.38c-.08-.63,0-.97.23-1.03ZM389.28,425.3l.46-.11c.13-.03,2.41,1.34,6.85,4.11l.04.15c-.33.08-.65.32-.95.72-4.38-2.43-6.61-3.82-6.7-4.15.05-.44.15-.69.3-.72ZM391.41,424.77l1.67-.42c1.4.43,2.29,1.4,2.66,2.89.1-.02.16.01.19.11l-.27.23c-.08-.33-1.48-1.17-4.19-2.51l-.08-.3ZM395.86,386.3l.15-.04c4.76,2.66,7.2,4.21,7.31,4.64.2.35.36.8.49,1.33l-.15.04c-4.75-2.61-7.18-4.16-7.31-4.64-.2-.35-.36-.8-.5-1.33ZM397.27,389.99l.15-.04c5.12,2.82,7.77,4.58,7.95,5.29.06.25.21.65.46,1.18l-.3.08c-.06-.23-2.48-1.72-7.27-4.49-.59-1.07-.92-1.74-.99-2.02ZM399.44,394.14l.15-.04c4.89,2.74,7.39,4.32,7.5,4.75.32.41.55.89.69,1.45l-.15.04c-4.99-2.71-7.58-4.44-7.76-5.17-.15-.15-.26-.39-.34-.72l-.08-.3ZM400.05,429.56l1.22-.3c.13-.03,2.41,1.34,6.85,4.11l.04.15-1.03.42-.3.08c-.18.04-2.52-1.36-7.04-4.22l.27-.23ZM401.42,398.17l.15-.04c5.02,2.82,7.59,4.49,7.72,5.02l.42,1.03c.05.2-.03.33-.23.38-.12-.27-2.48-1.72-7.08-4.38-.54-.86-.87-1.53-.99-2.02ZM402.9,428.68l1.52-.38c.13-.03,2.41,1.34,6.85,4.11l.04.15-1.03.42c-.38.1-1.29-.32-2.74-1.26l-4.57-2.74-.08-.31ZM403.4,402.2l.15-.04c4.76,2.66,7.2,4.21,7.31,4.64.32.41.61.93.88,1.56l-.15.04c-4.99-2.71-7.57-4.39-7.72-5.02-.2-.38-.36-.77-.46-1.18ZM405.37,406.24l.15-.04c5.13,2.84,7.77,4.55,7.91,5.14.3.33.5.71.61,1.14l.04.15-.15.04c-.21.03-2.3-1.23-6.28-3.77-.63.16-1.4-.73-2.28-2.66ZM406.06,427.73l1.52-.38c.13-.03,2.41,1.34,6.85,4.11l.04.15-1.48.53-6.85-4.11-.08-.3ZM407.92,410.61l.15-.04c4.89,2.74,7.39,4.33,7.5,4.76.28.25.63.81,1.06,1.67l-.3.08-6.66-3.99c-.76-.46-1.33-1.23-1.71-2.32l-.04-.15ZM409.26,426.93l1.67-.42c.13-.03,2.41,1.34,6.85,4.11l.04.15-1.03.42-.46.11c-2.27-1.43-4.49-2.76-6.66-3.99l-.42-.38ZM410.47,414.99l.15-.04c5.25,2.87,7.97,4.72,8.18,5.55l.42,1.03-.3.08c-.06-.23-2.54-1.76-7.46-4.6-.55-.89-.85-1.46-.91-1.71l-.08-.3ZM412.76,426.06l1.52-.38c.16-.01,2.38,1.32,6.66,3.99l.08.31-.72.34-.61.15-6.85-4.11-.08-.3ZM412.83,419.25l.15-.04c5.52,3.01,8.44,4.98,8.75,5.9l.42,1.03-.3.08c-.06-.23-2.54-1.76-7.46-4.6-.98-1.34-1.5-2.13-1.56-2.36ZM415.38,423.62l.15-.04c.16-.01,2.38,1.32,6.66,3.99l.15.61c.04.15-.08.34-.34.57l-.15.04c-.21.03-2.24-1.19-6.09-3.65l-.53-.19c.16-.66.21-1.1.15-1.33Z"/>
        <path class="cls-16" d="M418.88,379.41c1.85-.25,2.99-.43,3.42-.53,1.8-.45,3.67-.97,5.59-1.56,1.04-.15,2.32-.42,3.84-.8.71-.18,2.04,1.27,4,4.34,2.76,3.38,5.49,6.52,8.18,9.44.25.69.5,1.01.72.95l.15-.04c.36-.09.41-.75.15-1.98-.3-1.22-1.19-4.34-2.66-9.36-1.08-3.23-1.26-4.94-.55-5.12.73-.51,1.56-.88,2.47-1.1l.46-.11c5.43-1.03,8.87-1.73,10.31-2.09.08-.02.37-.15.88-.38.76.03,1.19.24,1.29.65.71,3.06,1.1,4.71,1.16,4.97.74,2.11,1.69,5.05,2.85,8.83l-.08.34c.11.46.24.75.38.88l5.59,24.96c.23.91-.27,1.52-1.48,1.83-4.64.73-9.02,1.55-13.13,2.47-.56.25-1.36.5-2.4.76-.39-.25-1.1-1.15-2.13-2.7l-7-7.31-.61.15c-.08,1.31.53,5.26,1.83,11.83,0,.22-.2.48-.61.8-4.06.91-6.27,1.35-6.62,1.33-.51.23-1.1.44-1.79.61l-1.06.27c-1.4.02-2.3.09-2.7.19l-.15.04c-.36.09-.8.25-1.33.49-1.14.29-2.33-1.68-3.58-5.9l-1.14-4.57c-.93-3.7-2.53-9.45-4.8-17.24l-.27-1.07c-.72-4.16-1.22-6.83-1.52-8.03l-.84-3.35c-.33-1.32.72-2.28,3.16-2.89ZM428.85,423.81c.22.03,2.38,1.32,6.47,3.88l.04.15-.72.34-.15.04c-.71.18-2.83-1.1-6.38-3.82l.74-.59ZM430.15,423.16l.3-.08c1.32-.33,2.66.09,4.03,1.26.15-.04,1.74.91,4.76,2.85l.04.15-1.07.27c-.63.16-2.31-.72-5.02-2.62-.2.05-1.22-.56-3.04-1.83ZM434.18,422.48l1.37-.34c.13-.03,2.47,1.38,7.04,4.22l.04.15-.3.08c-1.29.32-2.46-.03-3.5-1.06-.18.04-.94-.41-2.28-1.37-.1.03-.98-.46-2.62-1.45l.27-.23ZM435.47,377.85l-.48-.97c1.62.32,3.62,1.32,6,2.99l.38,1.52-.15.04c-1.38-.68-3.29-1.82-5.71-3.42l-.04-.15ZM437.53,421.64l.91-.23c.56-.14,2.87,1.12,6.92,3.77.15-.04.41.11.76.46l.04.15c-1.57.39-2.84.06-3.81-.99-.18.04-1.63-.83-4.38-2.62-.44-.05-.68-.15-.72-.3l.27-.23ZM437.49,380.74l.15-.04c.13-.03,1.59.84,4.38,2.62l.38,1.52-.15.04c-2.11-1.01-3.6-2.2-4.45-3.58l-.3-.57ZM440.76,420.99l1.67-.42c.22.03,2.38,1.32,6.47,3.88l.04.15c.05.2-.32.46-1.1.76-4.44-2.77-6.77-4.13-7-4.07l-.08-.3ZM441.6,409.47l.3-.08c.74.81,1.15,1.36,1.22,1.64-.15.04-.6-.23-1.33-.8l-.19-.76ZM442.24,412.05l.15-.04c3.48,1.85,5.36,3.32,5.63,4.41l.11.46c-.46-.13-2.3-1.23-5.52-3.31l-.38-1.52ZM442.32,386.48l.15-.04c.15-.04.34.08.57.34l.15.61-.3.08-.57-.99ZM442.89,415.29l.15-.04c.13-.03,2.41,1.34,6.85,4.11l.38,1.52-.15.04c-.18.04-1.51-.75-4-2.4-1.85-1.05-2.84-1.55-2.97-1.52l-.11-1.1-.15-.61ZM443.39,418.56l.3-.08c.22.03,2.38,1.32,6.47,3.88l.15.61c.04.15-.08.34-.34.57l-.15.04-6.62-3.84c.18-.58.24-.98.19-1.18ZM450.66,417.87l1.07-.27c.13-.03,2.41,1.34,6.85,4.11.05.2-.02.33-.23.38l-1.07.27c-4.23-2.26-6.44-3.75-6.62-4.49ZM453.36,417.04c1.5-.37,2.7-.08,3.62.88.16-.01,1.87,1.01,5.14,3.08l.04.15-1.52.38c-4.78-2.71-7.19-4.16-7.23-4.34l-.04-.15ZM456.9,416.31l1.06-.27c.56-.14,2.87,1.12,6.93,3.77.15-.04.41.11.76.46l.04.15c-1.5.37-2.7.08-3.62-.88-.18.04-1.89-.98-5.14-3.08l-.04-.15ZM458.83,371.68l.15-.04c2,.36,4.26,1.42,6.77,3.16l.15.61.04.8-.15.04c-.18.04-2.47-1.21-6.89-3.78l-.04-.15-.04-.64ZM459.33,373.66l6.89,4.26.34,1.37-.46.11-6.66-3.99-.34-1.37c-.03-.21.05-.34.23-.38ZM459.86,377.08l.15-.04c4.64,2.59,7.01,4.1,7.12,4.53.13.1.27.44.42,1.03l.08.3-.15.04c-.18.04-1.7-.87-4.57-2.74-1.69-.71-2.64-1.5-2.85-2.36l-.19-.76ZM460.62,415.7l1.52-.38c.13-.03,2.47,1.38,7.04,4.22l.04.15-1.22.3c-.38.1-1.29-.32-2.74-1.26-1.29-.86-2.82-1.77-4.57-2.74l-.08-.3ZM460.89,380.55l.15-.04c4.76,2.66,7.2,4.21,7.31,4.64l.3,1.22-.15.04c-.18.04-1.76-.91-4.76-2.85-1.54-.53-2.46-1.43-2.78-2.7l-.08-.3ZM461.91,384.01l.15-.04c.12-.03,2.54,1.41,7.23,4.34l.38,1.52-.15.04-5.1-2.93c-1.35-.66-2.15-1.48-2.4-2.47l-.11-.46ZM462.94,387.47l.15-.04c.13-.03,2.41,1.34,6.85,4.11l.38,1.52-.15.04c-.18.04-2.52-1.36-7.04-4.22l-.19-1.41ZM463.59,390.71l.15-.04c.13-.03,2.47,1.38,7.04,4.22l.38,1.52-.15.04c-.18.04-2.52-1.36-7.04-4.22l-.38-1.52ZM464.16,414.98c1.5-.37,2.7-.08,3.62.87.25.02,1.9,1.01,4.95,2.97.05.2-.03.33-.23.38l-1.06.27c-.18.04-1.76-.91-4.76-2.85-.1.03-.98-.46-2.63-1.45.1-.03.14-.09.11-.19ZM464.43,394.05l.15-.04c.13-.03,2.47,1.38,7.04,4.22l.15.61.04.8-.15.04c-.18.04-2.46-1.33-6.85-4.11l-.38-1.52ZM465.07,397.29l.15-.04c.13-.03,2.47,1.38,7.04,4.22l.38,1.52-.15.04c-.18.04-2.52-1.36-7.04-4.22l-.38-1.52ZM465.91,400.64l.15-.04c.13-.03,2.47,1.38,7.04,4.22l.38,1.52-.15.04c-.18.04-2.52-1.36-7.04-4.22l-.38-1.52ZM466.75,403.98l.15-.04c.13-.03,2.47,1.38,7.04,4.22l.15.61c.13.51.09.79-.11.84-.18.02-2.47-1.35-6.85-4.11l-.38-1.52ZM468.27,413.31c.22.03,2.38,1.32,6.47,3.88l.04.15c-.05.44-.36.74-.91.87-.06-.12-2.21-1.41-6.47-3.88l-.04-.15c.08-.45.38-.74.91-.88ZM467.4,407.22l.15-.04c.13-.03,2.41,1.34,6.85,4.11l.38,1.52-.3.08-6.85-4.11-.08-.3c-.04-.58-.09-1-.15-1.26ZM468.04,410.45l.15-.04c.13-.03,2.47,1.38,7.04,4.22l.04.15c.18.74.13,1.18-.15,1.33-.06-.12-2.21-1.41-6.47-3.88-.15-.15-.25-.34-.3-.57l-.3-1.22Z"/>
        <path class="cls-16" d="M490.94,359.77l1.07-.27c7.63-.96,11.66-.57,12.1,1.18.5,4.14.91,6.89,1.26,8.26l.46,1.83c.08.84-.13,1.33-.61,1.45-2.56-.11-4.22-.08-4.98.11l-.76.19c-4.97,1.24-7.37,2.22-7.19,2.93-2.99,3.15-4.12,6.18-3.39,9.09.59,2.36,2.92,4.58,7,6.66.46.21.95.25,1.48.11l.76-.19c2.18-.55,3.27-1.57,3.27-3.08l-.08-.3c-.18-.28-.52-.35-1.03-.23-.56.14-1.29.43-2.21.88-2.04.03-3.16-.34-3.35-1.1l-.65-7.76c.11-.62.42-1.1.93-1.45l2.51-.63c2.88-.56,4.68-.98,5.42-1.28l4.41-1.1c1.8-.56,3.11-.94,3.92-1.14l.31-.08c.91-.23,1.62.02,2.13.76l.12,1.1,1.67,5.4c.5,4.89.33,8.54-.49,10.96-.07,1.12-1.41,3.72-4.03,7.8-1.6,1.91-4.16,3.3-7.69,4.19-3.7.93-8.28,1.37-13.73,1.33-2.12-.41-4.45-1.72-6.96-3.92-1.65-.66-4.25-3.95-7.8-9.85-.86-1.72-1.35-2.79-1.45-3.2l-.38-1.52c-1.05-4.64-.79-9.18.8-13.62.82-3.2,3.46-6.23,7.91-9.1,3.25-2.21,6.33-3.68,9.25-4.41ZM483.99,404.36c3.45,1.73,7.46,3.96,12.02,6.7l.04.15-.46.11c-1.92.21-5.61-1.83-11.07-6.13-.29-.28-.46-.56-.53-.84ZM490.07,382.14l.15-.04c.13-.03,1.08.54,2.85,1.71l.3,1.22c.05.2-.03.33-.23.38l-3.08-1.98-.23-.91c-.03-.21.05-.34.23-.38ZM490.91,379.67c.13-.03.76.35,1.9,1.14l.27,1.07c.05.2-.03.33-.23.38-.2.05-1.03-.44-2.47-1.48.04-.47.22-.84.53-1.1ZM490.72,385.38l.15-.04c1.67.66,2.65,1.55,2.93,2.66l.08.3-.3.08c-1.73-1.32-2.68-2.32-2.86-3.01ZM491.37,406.72c1.34-.34,2.69.08,4.03,1.25.16-.01,1.87,1.01,5.14,3.08l-.61.15c-1.17.29-3.04-.53-5.63-2.47l-3.2-1.79.27-.23ZM492.32,377.54c.52.36.79.56.8.61.05.74-.06,1.15-.34,1.22-.15.04-.6-.23-1.33-.8.18-.58.47-.93.88-1.03ZM493.95,375.67c.78.51,1.17.79,1.18.84l.04.15c-.15.04-.58.25-1.29.65l-.8-.61-.04-.15c.08-.45.38-.74.91-.88ZM495.24,375.03l1.52-.38c.13-.03.82.39,2.09,1.25l.04.15-.72.34-.61.15c-1.48-.73-2.24-1.19-2.28-1.37l-.04-.15ZM495.7,406.61l.76-.19c.86-.22,2.32.44,4.38,1.98.13-.03,1.4.73,3.8,2.28l.04.15c-1.52.38-3.11-.14-4.76-1.56-.18.04-1.57-.79-4.19-2.51l-.04-.15ZM495.82,389.6l.3-.08c.99.08,1.53.1,1.63.08l.08.3-.61.15c-.56.14-1.03-.01-1.41-.46ZM498.4,374.07l1.52-.38c.13-.03.83.39,2.09,1.26.05.2-.02.33-.23.38l-1.07.27c-1.41-.67-2.17-1.13-2.28-1.37l-.04-.15ZM499.62,406.11l.76-.19c.86-.22,2.13.33,3.8,1.64.13-.03,1.52.81,4.18,2.51l.04.15-.15.04c-1.42.36-2.38.17-2.89-.57-3.75-2.05-5.66-3.25-5.75-3.58ZM501.98,373.5l.46-.11c1.98.15,3.02.43,3.12.84l-.27.23-1.22.3c-1.32-.64-2.02-1.06-2.09-1.25ZM503.16,405.39l1.52-.38c.13-.03,2.41,1.34,6.85,4.11l.08.3-1.07.27c-.38.1-1.29-.32-2.74-1.26l-4.57-2.74-.08-.3ZM505.25,360.07l.3-.08c.13-.03,2.41,1.34,6.85,4.11l.15.61.04.8-.15.04c-4.52-2.56-6.8-3.93-6.85-4.11l-.34-1.37ZM505.71,363.19l.3-.08c.16-.01,2.38,1.32,6.66,4l.15.61.04.8-.15.04c-4.51-2.51-6.81-3.93-6.89-4.26l-.11-1.1ZM506.12,366.16l.15-.04c.13-.03,2.41,1.34,6.85,4.11l.38,1.52-.15.04c-.18.04-2.52-1.36-7.04-4.22l-.15-.61-.04-.8ZM507.34,372.32l1.37.95c.05.2-.08.34-.38.42-.94.23-1.62.08-2.06-.46-.08-.3.28-.61,1.07-.91ZM507.35,404.02l.3-.08c.13-.03,2.41,1.34,6.85,4.11-.28.29-.56.46-.84.53l-.46.11c-4.48-2.49-6.77-3.91-6.89-4.26l.15-.04.88-.38ZM506.77,369.39l.15-.04c.25.02,1.9,1.01,4.95,2.97l.04.15-1.52.38c-.15.04-1.23-.61-3.23-1.94l-.38-1.52ZM510.2,402.5l6.51,4.03c.08.3-.28.61-1.07.91-.02-.08-1.92-1.22-5.71-3.42l-.8-.61-.08-.3c.61-.37.99-.57,1.14-.61ZM512.06,400.9c.22.03,2.38,1.32,6.47,3.88l.04.15c.06.25-.24.55-.91.88-.06-.12-2.21-1.42-6.47-3.88l-.11-.46.99-.57ZM513.21,399l.3-.08c.22.02,2.38,1.32,6.47,3.88-.09.51-.23.81-.42.91l-.46.11-6.51-4.03.61-.8ZM514.73,396.67l6.32,3.92.08.3c.04.15-.12.41-.46.76l-.3.08-6.47-3.88c.08-.67.35-1.06.84-1.18ZM515,374.98l-.02-.72c.97.43,3.29,1.8,6.97,4.12l.42,1.67c-.18.04-.94-.41-2.28-1.37-.2.05-1.28-.59-3.24-1.94-1.06-.38-1.66-.82-1.79-1.33l-.07-.43ZM515.53,394.7l.3-.08c.22.03,2.38,1.32,6.47,3.88l.04.15c-.18.58-.47.93-.88,1.03-.06-.23-1.53-1.15-4.41-2.78-.94-.74-1.56-1.06-1.86-.99-.14-.56-.03-.96.34-1.22ZM515.79,377.65l.15-.04c4.64,2.59,7.01,4.1,7.12,4.53.24.53.41.98.49,1.33l-.15.04c-.2.05-2.61-1.39-7.23-4.34l-.38-1.52ZM516.52,392.18c.22.02,2.38,1.32,6.47,3.88l.15.61c.04.15-.12.41-.46.76-.06-.12-2.21-1.41-6.47-3.88l-.04-.15c-.14-.56-.03-.96.34-1.22ZM517.01,389.64c.16-.01,2.38,1.32,6.66,3.99.08.74.01,1.13-.19,1.18l-.15.04-6.62-3.84c0-.86.1-1.32.3-1.37ZM516.97,381.07c.16-.01,2.38,1.32,6.66,4l.3,1.22c.05.2-.03.33-.23.38l-6.66-3.99-.3-1.22c-.03-.21.05-.34.23-.38ZM517.31,386.97c.16-.01,2.38,1.32,6.66,4l.04.15c.15.61.02.96-.38,1.07-.18.04-1.32-.64-3.42-2.06l-3.2-1.79c-.08-.84.02-1.3.3-1.37ZM517.08,384.12l.15-.04,6.81,3.96.04,1.45-.15.04c-4.36-2.47-6.58-3.8-6.66-4l-.08-.3-.12-1.1Z"/>
        <path class="cls-16" d="M541.47,348.43l4.26-1.07c1.52-.38,2.35-.32,2.47.19l.08.3c.6,4.11.98,6.49,1.14,7.15l.84,1.41c.25,1.77-.09,2.77-1.03,3.01-1.85.03-2.97.09-3.35.19l-.15.04c-.1.03-.77.36-2.02.99-.38.09-1.66.36-3.84.8-.27.63-.33,1.24-.19,1.83l.34,1.37c.15.61,1.75.53,4.79-.23,2.33-.69,4.22-1.33,5.67-1.9.63-.16,1.18.3,1.64,1.37.03,1.42.17,2.63.42,3.61l.42,1.67c.2.79.67,1.8,1.41,3.04-.02.65-.41,1.07-1.14,1.26-1.8.02-3.27.17-4.41.46l-.46.11c-3.35.84-4.88,1.81-4.61,2.93.06.25.12.89.15,1.9.28,1.12,1.48,1.41,3.61.88.76-.08,2.14-.37,4.15-.88l.61-.15c.86-.22,1.94-.65,3.23-1.29.54.03.88.27.99.72.1,1.16.38,2.92.84,5.29.3.76.57,1.61.8,2.55l.76,3.04c.18.71-.04,1.14-.65,1.29-.81.2-1.48.32-2.02.34-1.65.52-2.91.89-3.77,1.1-1.67.42-4.45.95-8.33,1.6-3.27.93-5.48,1.59-6.62,1.98-.81.09-2.04.35-3.69.76-1.71.05-2.61-.1-2.7-.46-.3-2.08-1.61-6.98-3.92-14.71-2.38-10.16-3.98-16.88-4.8-20.15l-.53-2.13c-.08-.3-.46-1.18-1.14-2.62-.1-1.59.32-2.51,1.26-2.74l.15-.04c2.54-.31,4.35-.6,5.44-.88,2.94-.95,7.57-2.27,13.89-3.96ZM534.28,397.28l.46-.11c.13-.03,2.47,1.38,7.04,4.22l.04.15-1.52.38c-.21.03-2.24-1.19-6.09-3.65l-.15-.61c-.03-.21.05-.34.23-.38ZM536.76,396.82l1.52-.38c.13-.03,2.41,1.34,6.85,4.11.05.2-.03.33-.23.38l-1.07.27c-.62-.22-2.97-1.63-7.04-4.22l-.04-.15ZM539.92,395.87l1.52-.38c.13-.03,2.47,1.38,7.04,4.22l-.27.23-1.22.3c-.21.03-2.56-1.38-7.04-4.22l-.04-.15ZM541.09,362.43l.15-.04c1.34-.34,2.37-.11,3.08.68l.04.15-.3.08c-1.29.32-2.27.08-2.93-.72l-.04-.15ZM543.07,394.92l1.52-.38c.13-.03,2.54,1.42,7.23,4.34l.04.15c-1.55.39-2.82.06-3.81-.99-.18.04-1.83-.94-4.95-2.97l-.04-.15ZM545.47,361.17l.3-.08c.13-.03.7.31,1.71,1.03l.04.15-1.22.3c-.53.13-1.08-.11-1.64-.72.02-.33.29-.56.8-.69ZM545.43,377.84c.52.35.79.56.8.61l.04.15-.76.19c-.2.05-.33-.02-.38-.23.05-.44.15-.68.3-.72ZM545.66,376.16l1.06-.27c.13-.03,1.21.62,3.23,1.94l.04.15-1.07.27c-.51.13-1.73-.43-3.65-1.67l.38-.42ZM546.61,394.2l.15-.04c1.37-.34,2.52-.04,3.46.91.16-.01,1.87,1.02,5.14,3.08l.04.15-1.52.38c-.65-.24-3.06-1.69-7.23-4.34l-.04-.15ZM547.83,360.9l.3-.08c1.44-.28,2.21-.2,2.32.23l.04.15-1.52.38c-.15.04-.53-.19-1.14-.69ZM548.36,375.33l1.52-.38c.13-.03,1.21.62,3.23,1.94.05.2-.03.33-.23.38l-1.07.27c-2.22-1.12-3.37-1.85-3.46-2.21ZM549.96,349.38c.13-.03,2.41,1.34,6.85,4.11l.3,1.22c.05.2-.03.33-.23.38l-6.89-4.26-.27-1.07c-.03-.21.05-.34.23-.38ZM550.26,352.53l.15-.04c4.51,2.51,6.82,3.98,6.93,4.41l.65,1.29.04.15-.15.04c-4.89-2.74-7.38-4.27-7.46-4.6-.03-.1-.08-.52-.15-1.26ZM550.34,393.59l1.52-.38c.13-.03,2.47,1.38,7.04,4.22l.04.15-1.52.38c-.85-.38-3.2-1.79-7.04-4.22l-.04-.15ZM551.56,359l.15-.04c.22.03,2.38,1.32,6.47,3.88l.08.31-.19.53c.64.41,1.01.8,1.1,1.18-.37-.09-3.1-1.73-8.18-4.91-.03-.13.16-.44.57-.95ZM551.48,356.11l.15-.04c.13-.03,2.41,1.34,6.85,4.11l.04.15-.04,1.14-.15.04c-.18.04-1.64-.83-4.38-2.62-.18.04-.94-.41-2.28-1.37l-.15.04c.01-.81,0-1.29-.04-1.44ZM552.13,374.87c1.6-.4,2.73-.2,3.39.61.25.02,3.29,1.85,9.13,5.48l.15.61.04.8-.15.04c-4.51-2.51-6.81-3.93-6.89-4.26-.43-1.72-1.66-2.33-3.69-1.83-.1-.41-.74-.79-1.9-1.14l-.08-.31ZM552.96,362.69l.15-.04c.13-.03,2.47,1.38,7.04,4.22l.27,1.07c.05.2-.03.33-.23.38-4.37-2.38-6.62-3.82-6.74-4.3-.09-.35-.25-.8-.5-1.33ZM553.76,365.89c.13-.03,2.41,1.34,6.85,4.11l.38,1.52-.15.04c-.18.04-2.52-1.36-7.04-4.22l-.27-1.07c-.03-.21.05-.34.23-.38ZM553.69,392.75l1.52-.38c.13-.03,2.41,1.34,6.85,4.11l.04.15-1.48.53-6.89-4.26-.04-.15ZM554.26,369.16l.15-.04c5.12,2.82,7.77,4.58,7.95,5.29l.15.61c.05.2-.03.33-.23.38-4.69-2.79-7.06-4.3-7.12-4.53-.44-.46-.74-1.03-.91-1.71ZM555.67,372.85l.15-.04c4.27,2.41,6.44,3.75,6.51,4.03-.09.51-.23.81-.42.91l-.15.04-6.43-3.73-.12-.46c-.04-.15.11-.41.46-.76ZM557.04,391.91l1.52-.38c.13-.03,2.41,1.34,6.85,4.11l-.38.42-.91.23c-.85-.38-3.2-1.79-7.04-4.22l-.04-.15ZM557.91,379.89l.15-.04c.13-.03,2.47,1.38,7.04,4.22l.38,1.52-.15.04c-4.65-2.64-7-4.05-7.04-4.22l-.38-1.52ZM558.86,383.05l7.08,4.37.38,1.52-.15.04c-4.62-2.54-7-4.04-7.12-4.53-.03-.1-.18-.5-.46-1.18l.27-.23ZM559.59,386.59l.15-.04c.13-.03,2.47,1.38,7.04,4.22l.3,1.22c.05.2-.03.33-.23.38-.03-.1-2.12-1.36-6.28-3.77l-.61-.5-.38-1.52ZM560.39,389.78c.22.03,2.38,1.32,6.47,3.88l.11.46c.04.15-.08.34-.34.57l-.46.11-6.32-3.92c.04-.47.22-.84.53-1.1Z"/>
        <path class="cls-16" d="M567.42,338.38l1.83-.46c3.35-.84,5.11-.9,5.29-.19l.5,1.98c.09,3.37.19,5.29.3,5.75.77,3.1,1.75,8.73,2.93,16.89.05.2.52,1,1.41,2.4-.2.27-.38.42-.53.46-4.57,1.14-7.94,2.53-10.12,4.15l-.15.04c-.39-.25-.6-.47-.65-.65-.14-.56-.25-1.45-.34-2.66-2.73-8.34-4.82-15.37-6.24-21.08-.76-3.04-.79-4.65-.08-4.83,1.12-.49,3.07-1.09,5.86-1.79ZM572.45,370.11l1.22-.3c2.41-.6,5.05-.18,7.91,1.26.67.53,1.59,2.24,2.74,5.14.72,2.89-.63,5.66-4.07,8.29l-1.07.27c-.43.11-1,.2-1.71.27-.15.15-.34.25-.57.31-2.31.58-4.93-.87-7.88-4.34-.38-.66-.63-1.24-.76-1.75l-.53-2.13c-.31-1.24.73-3.34,3.12-6.28.36-.3.89-.54,1.6-.72ZM575.53,367.56l.61.49.04.15-.3.08c-.13.03-.71.07-1.75.11l-.08-.3,1.48-.53ZM576.59,342.71l7.38,4.3c.1,1.05.03,1.61-.23,1.67-.72-.6-3-1.97-6.85-4.11-.29-.28-.46-.56-.53-.84-.08-.63,0-.97.23-1.03ZM576.44,386.74l1.67-.42c.13-.03,2.54,1.41,7.23,4.34l.08.3-.61.15c-.91.23-2.42-.42-4.53-1.94-2.51-1.42-3.79-2.23-3.84-2.44ZM576.7,341.23l-.18-1.69c1.26.84,3.73,2.42,7.41,4.74l.23.91c.04.15-.08.34-.34.57-4.65-2.64-7.02-4.15-7.12-4.53ZM576.71,345.76l.15-.04c.13-.03,2.6,1.45,7.42,4.45l.38,1.52-.3.08c-4.76-2.77-7.19-4.27-7.27-4.49l-.38-1.52ZM577.32,366.95l1.22-.3c.13-.03,2.6,1.45,7.42,4.45l.04.15-1.67.42-3.39-2.55c-.7.01-1.98-.58-3.84-1.79-.03-.21.05-.34.23-.38ZM577.35,348.99l.15-.04c.13-.03,2.6,1.45,7.42,4.45l.42,1.67-.15.04c-4.89-2.85-7.38-4.38-7.46-4.6l-.38-1.52ZM578,352.23l.15-.04c.13-.03,2.6,1.45,7.42,4.45l.23,1.56-.3.08c-.03-.1-2.45-1.6-7.27-4.49l-.11-.46-.11-1.1ZM578.46,355.35l.15-.04c.13-.03,2.6,1.45,7.42,4.45l.3,1.22-.08.34c-4.84-2.56-7.34-4.15-7.5-4.75l-.3-1.22ZM578.95,358.62l.3-.08c.13-.03,2.54,1.41,7.23,4.34l.38,1.52-.3.08-7.23-4.34-.38-1.52ZM579.37,361.59l.15-.04c4.89,2.74,7.39,4.33,7.5,4.76l.88,1.56-.3.08c-4.9-2.79-7.41-4.42-7.53-4.91l-.57-.99-.11-.46ZM579.94,385.86l1.52-.38c.13-.03,2.54,1.41,7.23,4.34.05.2-.03.33-.23.38l-1.22.3c-.08.02-2.49-1.43-7.23-4.34l-.08-.3ZM581.08,365.2l7.27,4.49c-.03.55-.32.89-.88,1.03-4.78-2.71-7.21-4.26-7.3-4.64.35-.52.66-.81.91-.88ZM583.29,383.73c.13-.03,2.54,1.41,7.23,4.34l.08.3c.04.18-.21.46-.76.84l-7.42-4.45-.04-.15c.08-.45.38-.74.91-.88ZM584.89,381.71l7.27,4.49c.03.13-.16.44-.57.95l-.3.08c-4.69-2.81-7.09-4.21-7.19-4.18-.18-.71.09-1.15.8-1.33ZM584.66,373.04c4.93,2.89,7.45,4.58,7.57,5.06l.42,1.03.04.15-.15.04c-4.97-2.64-7.53-4.26-7.69-4.87l-.42-1.03c-.03-.21.05-.34.23-.38ZM585.65,379.58l.15-.04c.13-.03,2.6,1.45,7.42,4.45-.08.67-.2,1.02-.38,1.07l-.31.08c-4.79-2.79-7.22-4.29-7.27-4.49.05-.66.18-1.01.38-1.06ZM585.88,376.62l7.27,4.49.34,1.37-.46.11c-.08.02-2.49-1.43-7.23-4.34-.15-1.04-.13-1.59.08-1.64Z"/>
        <path class="cls-16" d="M594.21,331.68l1.83-.46c3.35-.84,5.11-.9,5.29-.19l.5,1.98c.09,3.37.19,5.29.3,5.75.77,3.1,1.75,8.73,2.93,16.89.05.2.52,1,1.41,2.4-.2.27-.38.42-.53.46-4.57,1.14-7.94,2.53-10.12,4.15l-.15.04c-.39-.25-.6-.47-.65-.65-.14-.56-.25-1.45-.34-2.66-2.73-8.34-4.81-15.37-6.24-21.08-.76-3.04-.79-4.65-.08-4.83,1.12-.49,3.07-1.09,5.86-1.79ZM599.23,363.41l1.22-.3c2.41-.6,5.05-.18,7.91,1.26.67.53,1.59,2.24,2.74,5.14.72,2.89-.63,5.66-4.07,8.29l-1.06.27c-.43.11-1,.2-1.71.27-.15.15-.34.25-.57.31-2.31.58-4.93-.87-7.88-4.34-.38-.66-.63-1.24-.76-1.75l-.53-2.13c-.31-1.24.73-3.34,3.12-6.28.35-.3.89-.54,1.6-.72ZM602.31,360.86l.61.49.04.15-.3.08c-.13.03-.71.07-1.75.11l-.08-.3,1.48-.53ZM603.38,336.01l7.38,4.3c.1,1.05.03,1.61-.23,1.67-.72-.6-3-1.97-6.85-4.11-.29-.28-.46-.56-.53-.84-.08-.63,0-.97.23-1.03ZM603.23,380.04l1.67-.42c.13-.03,2.54,1.41,7.23,4.34l.08.3-.61.15c-.91.23-2.42-.42-4.53-1.94-2.51-1.42-3.79-2.23-3.84-2.44ZM603.49,334.53l-.18-1.69c1.26.84,3.73,2.42,7.41,4.74l.23.91c.04.15-.08.34-.34.57-4.65-2.64-7.02-4.15-7.12-4.53ZM603.49,339.06l.15-.04c.13-.03,2.6,1.45,7.42,4.45l.38,1.52-.3.08c-4.76-2.77-7.19-4.27-7.27-4.49l-.38-1.52ZM604.1,360.25l1.22-.3c.13-.03,2.6,1.45,7.42,4.45l.04.15-1.67.42-3.39-2.55c-.7.01-1.98-.58-3.84-1.79-.03-.21.05-.34.23-.38ZM604.14,342.29l.15-.04c.13-.03,2.6,1.45,7.42,4.45l.42,1.67-.15.04c-4.89-2.85-7.38-4.38-7.46-4.6l-.38-1.52ZM604.79,345.53l.15-.04c.12-.03,2.6,1.45,7.42,4.45l.23,1.56-.3.08c-.03-.1-2.45-1.6-7.27-4.49l-.11-.46-.12-1.1ZM605.24,348.65l.15-.04c.13-.03,2.6,1.45,7.42,4.45l.3,1.22-.08.34c-4.84-2.56-7.34-4.15-7.5-4.75l-.3-1.22ZM605.74,351.92l.3-.08c.12-.03,2.54,1.41,7.23,4.34l.38,1.52-.3.08-7.23-4.34-.38-1.52ZM606.16,354.89l.15-.04c4.89,2.74,7.39,4.33,7.5,4.76l.88,1.56-.3.08c-4.9-2.79-7.41-4.42-7.53-4.91l-.57-.99-.11-.46ZM606.73,379.16l1.52-.38c.13-.03,2.54,1.41,7.23,4.34.05.2-.03.33-.23.38l-1.22.3c-.08.02-2.49-1.43-7.23-4.34l-.08-.3ZM607.87,358.5l7.27,4.49c-.03.55-.32.89-.88,1.03-4.78-2.71-7.21-4.26-7.3-4.64.35-.52.66-.81.91-.88ZM610.08,377.03c.12-.03,2.54,1.41,7.23,4.34l.08.3c.04.18-.21.46-.76.84l-7.42-4.45-.04-.15c.08-.45.38-.74.91-.88ZM611.68,375.01l7.27,4.49c.03.13-.16.44-.57.95l-.3.08c-4.69-2.81-7.09-4.21-7.19-4.18-.18-.71.09-1.15.8-1.33ZM611.45,366.34c4.93,2.89,7.45,4.58,7.57,5.06l.42,1.03.04.15-.15.04c-4.97-2.64-7.54-4.26-7.69-4.87l-.42-1.03c-.03-.21.05-.34.23-.38ZM612.44,372.89l.15-.04c.13-.03,2.6,1.45,7.42,4.45-.07.67-.2,1.02-.38,1.07l-.3.08c-4.79-2.79-7.22-4.29-7.27-4.49.05-.66.18-1.01.38-1.06ZM612.66,369.92l7.27,4.49.34,1.37-.46.11c-.08.02-2.49-1.43-7.23-4.34-.15-1.04-.13-1.59.08-1.64Z"/>
        <path class="cls-16" d="M620.99,324.98l1.82-.46c3.35-.84,5.11-.9,5.29-.19l.49,1.98c.09,3.37.19,5.29.3,5.75.77,3.09,1.75,8.73,2.93,16.89.05.2.52,1,1.41,2.4-.2.27-.38.42-.53.46-4.57,1.14-7.94,2.53-10.12,4.15l-.15.04c-.39-.25-.6-.47-.65-.65-.14-.56-.25-1.45-.34-2.66-2.73-8.34-4.81-15.37-6.24-21.08-.76-3.04-.79-4.65-.08-4.83,1.12-.49,3.07-1.09,5.86-1.79ZM626.02,356.71l1.22-.3c2.41-.6,5.05-.18,7.91,1.26.67.53,1.59,2.24,2.74,5.14.72,2.89-.63,5.66-4.07,8.29l-1.07.27c-.43.11-1,.2-1.71.27-.15.15-.34.25-.57.31-2.31.58-4.93-.87-7.88-4.34-.38-.66-.63-1.24-.76-1.75l-.53-2.13c-.31-1.24.73-3.34,3.12-6.28.36-.3.89-.54,1.6-.72ZM629.1,354.16l.61.49.04.15-.3.08c-.13.03-.71.07-1.75.11l-.08-.3,1.48-.53ZM630.16,329.32l7.38,4.3c.1,1.05.03,1.61-.23,1.67-.72-.6-3-1.97-6.85-4.11-.29-.28-.46-.56-.53-.84-.08-.63,0-.97.23-1.03ZM630.02,373.34l1.67-.42c.13-.03,2.54,1.41,7.23,4.34l.08.3-.61.15c-.91.23-2.42-.42-4.53-1.94-2.51-1.42-3.79-2.23-3.84-2.44ZM630.28,327.83l-.18-1.69c1.26.84,3.73,2.42,7.41,4.74l.23.91c.04.15-.08.34-.34.57-4.65-2.64-7.02-4.15-7.12-4.53ZM630.28,332.36l.15-.04c.13-.03,2.6,1.45,7.42,4.45l.38,1.52-.3.08c-4.76-2.77-7.19-4.27-7.27-4.49l-.38-1.52ZM630.89,353.55l1.22-.3c.12-.03,2.6,1.45,7.42,4.45l.04.15-1.67.42-3.39-2.55c-.7.01-1.98-.58-3.84-1.79-.03-.21.05-.34.23-.38ZM630.93,335.59l.15-.04c.13-.03,2.6,1.45,7.42,4.45l.42,1.67-.15.04c-4.89-2.85-7.38-4.38-7.46-4.6l-.38-1.52ZM631.57,338.83l.15-.04c.13-.03,2.6,1.45,7.42,4.45l.23,1.56-.3.08c-.03-.1-2.45-1.6-7.27-4.49l-.11-.46-.11-1.1ZM632.03,341.95l.15-.04c.13-.03,2.6,1.45,7.42,4.45l.3,1.22-.08.34c-4.85-2.56-7.34-4.15-7.5-4.75l-.3-1.22ZM632.52,345.22l.3-.08c.13-.03,2.54,1.41,7.23,4.34l.38,1.52-.3.08-7.23-4.34-.38-1.52ZM632.94,348.19l.15-.04c4.89,2.74,7.39,4.33,7.49,4.76l.88,1.56-.3.08c-4.9-2.79-7.41-4.42-7.54-4.91l-.57-.99-.12-.46ZM633.52,372.46l1.52-.38c.12-.03,2.54,1.41,7.23,4.34.05.2-.03.33-.23.38l-1.22.3c-.08.02-2.49-1.43-7.23-4.34l-.08-.3ZM634.65,351.8l7.27,4.49c-.03.55-.32.89-.88,1.03-4.78-2.71-7.21-4.26-7.31-4.64.36-.52.66-.81.91-.88ZM636.86,370.33c.13-.03,2.54,1.41,7.23,4.34l.08.3c.04.18-.21.46-.76.84l-7.42-4.45-.04-.15c.07-.45.38-.74.91-.88ZM638.46,368.32l7.27,4.49c.03.13-.16.44-.57.95l-.3.08c-4.69-2.81-7.09-4.21-7.19-4.19-.18-.71.09-1.15.8-1.33ZM638.23,359.64c4.93,2.89,7.45,4.58,7.57,5.06l.42,1.03.04.15-.15.04c-4.97-2.64-7.54-4.26-7.69-4.87l-.42-1.03c-.03-.21.05-.34.23-.38ZM639.22,366.19l.15-.04c.13-.03,2.6,1.45,7.42,4.45-.08.67-.2,1.02-.38,1.07l-.31.08c-4.79-2.79-7.21-4.29-7.27-4.49.05-.66.18-1.01.38-1.06ZM639.45,363.22l7.27,4.49.34,1.37-.46.11c-.08.02-2.49-1.43-7.23-4.34-.15-1.04-.13-1.59.08-1.64Z"/>
      </g>
      <path class="cls-2" d="M277.99,309.43c4.93,1.15,9.87,2.3,14.8,3.45,3.95.92,8.24-3.54,5.65-7.34-1.95-2.86-3.9-5.72-5.85-8.58-.89-1.3-1.77-2.6-2.66-3.9-.53-.78-1.06-1.56-1.59-2.34-.01-.03-.02-.04-.04-.07,3.54-5.7,8.26-10.99,12.26-16.36,3.08-4.14-2.81-9.28-6.84-6.84-3.17,1.92-6.38,3.76-9.66,5.47-2.09,1.09-6.5,4.24-8.67,4.37-1.82.11-5.82-4.82-7.52-6.42-2.87-2.71-5.75-5.42-8.62-8.12-3.11-2.93-8.54-.89-8.54,3.54,0,6.69,0,13.37,0,20.06-8.56-.18-17.11-.17-25.65.74-5.08.54-6.61,6.28-2.52,9.32,5.4,4.01,11,7.67,16.82,11.01-1.84,3.7-3.55,7.46-5.16,11.28-2.11,5.02,5.03,7.78,8.36,4.86,3.78-3.32,7.65-6.52,11.69-9.52,3.02-2.24,6.5-5.61,10.05-6.84,3.74-1.29,9.85,1.35,13.68,2.24Z"/>
      <path class="cls-11" d="M262.46,114.78c5.76.77,12.47.88,18.34,2.25-.41,1.58-1,4.06-1.08,4.52-.43,2.56-.87,5.12-1.3,7.67-.92,5.43,5.95,8.87,9.14,3.85,1.82-2.86,3.63-5.72,5.45-8.59.9-1.41,3.44-6.55,4.26-6.96,1.3-.66,7.9,2.33,9.43,2.78,3.77,1.11,7.55,2.22,11.32,3.33,5.01,1.48,8.07-4.78,4.86-8.36l-7.64-8.52c-.37-.41-3.86-3.76-3.82-4.26.75-.22,1.21-.71,1.36-1.47.41-.89.83-1.77,1.24-2.66,3.31-7.08,6.61-14.17,9.92-21.25,1.88-4.04-2.35-10.05-6.84-6.84-1.41,1.01-13.67,9.28-18.12,12.68-.36-.44-.73-.87-1.09-1.31l-3.78-4.54c-2.94-3.53-5.88-7.06-8.82-10.59-3.09-3.71-10.27.28-8.36,4.86,3.5,8.39,4.9,16.89,4.27,25.92-6.24,2.61-12.49,5.21-18.73,7.82-3.85,1.6-5.57,8.89,0,9.64Z"/>
      <path class="cls-6" d="M325.1,158.32c-2.81-.81-5.9-4.66-7.66-6.67-3.92-4.5-10.24,1.23-7.85,6.06,1.26,2.55,1.74,5.06,1.71,7.74-4.9.31-9.76.9-14.61,1.76-4.79.85-4.75,8.76,0,9.64.48.09,7.15,1.47,10.28,2.01-.02.49-.03.99-.08,1.48-.22,2.37-.77,4.64-1.4,6.93-1.28,4.6,5,8.75,8.36,4.86,3-3.47,6-8.34,9.62-11.13.59-.29.78-.69.55-1.2,1.26.26,2.51.52,3.77.79,2.51.52,5.02,1.05,7.53,1.57,5.01,1.05,8.14-4.53,4.86-8.36-1.38-1.61-3.05-3.25-4.4-5.02.71-1.17,1.65-2.37,2.1-3.39,1.01-2.28,1.66-4.55,2.07-7,.65-3.91-3.37-8.31-7.35-5.65l-4.97,3.33c-1.09.73-3.97,1.76-2.54,2.24Z"/>
      <path class="cls-10" d="M373.65,76.42c4.48.99,9.55,1.59,14.18,2.82-.32.98-.62,1.97-.93,2.95l-2.4,7.52c-1.87,5.86,5.95,7.99,9.14,3.85,1.6-2.08,3.21-4.16,4.81-6.24,1.16-1.51,3.35-5.56,5.05-6.14,1.54-.52,4.94.8,6.55,1.1,2.67.49,5.34.99,8.01,1.48,4.55.84,7.42-3.28,5.65-7.34-1.2-2.75-3.33-4.63-5.54-6.59-1.34-1.19-3.84-2.76-5.51-4.41,1.07-1.47,2.73-3.03,3.58-3.97,1.9-2.12,3.93-4.1,6.05-6.01,4.15-3.75-1.35-11.11-6.06-7.85-2.38,1.65-4.77,3.3-7.15,4.95-1.4.97-3.01,2.41-4.63,3.52-1.53-1.99-2.86-4.29-4.21-6.16-3.2-4.43-10.6-1.94-9.14,3.85.82,3.25,1.09,6.34.94,9.57-6.12,1.15-12.25,2.3-18.37,3.46-4.85.91-4.68,8.61,0,9.64Z"/>
      <path class="cls-3" d="M386.45,270.29c-.12,4.05,5.76,6.97,8.54,3.54,3.29-4.06,6.57-8.13,9.86-12.19,1.64-2.03,3.29-4.06,4.93-6.09l2.46-3.05c.36-.3.64-.55.86-.77.22.04.46.07.74.11,1.25.36,2.5.72,3.75,1.08l7.51,2.17c5,1.45,10.01,2.89,15.01,4.34,3.69,1.07,7.14-2.51,6.15-6.15-1.37-5.05-3.82-9.53-6.47-14-2.76-4.64-6.12-9.78-6.06-15.39.05-4.94,3.44-7.84,6.96-10.77,3.5-2.91,6.8-5.74,9.13-9.73,2.07-3.55-1.41-8.87-5.65-7.34-7.18,2.59-14.36,5.68-21.69,7.81-3.33.97-6.83-2.24-9.7-3.9-3.29-1.9-6.57-3.8-9.86-5.7-3.03-1.75-7.91.42-7.52,4.32.69,6.97,1,13.94.93,20.93-10.87,2.73-21.35,6.7-31.37,11.8-3.71,1.89-2.98,8.31,1.19,9.14,7.63,1.52,15.27,3.03,22.9,4.55-1.46,8.36-2.34,16.8-2.6,25.29Z"/>
      <path class="cls-7" d="M495.98,72.32c2.6.06,5.2.12,7.8.18-1.79,4.86-3.3,9.81-4.58,14.84-1.36,5.33,6.47,9.04,9.14,3.85,3.12-6.08,6.24-12.15,9.37-18.23.11-.22.21-.45.29-.67,1.28.87,2.57,1.74,3.85,2.61,3.42,2.32,6.84,4.63,10.26,6.95,4.29,2.9,9.2-2.7,6.84-6.84-2.94-5.15-5.49-11.69-9.27-16.26.7-.74,1.44-1.54,1.62-1.72,2.42-2.33,4.98-4.47,7.69-6.45,5.13-3.74.77-11.67-5.05-8.63-5.01,2.62-10.19,5.06-15.09,7.88-2.31,1.33-2.1.71-4.26-1.23-2.22-1.99-4.27-4.14-6.25-6.37-3.97-4.46-10.24,1.21-7.85,6.06,1.44,2.92,2.74,6.35,2.94,9.71-2.81,2.05-7.25,3.54-9.98,5.01-4.5,2.41-2.26,9.21,2.52,9.32Z"/>
      <path class="cls-15" d="M627.63,180.58c-3.47-.86-7.77.61-10.53-1.71-3.53-2.97-6.47-7.23-9.55-10.68-2.97-3.32-8.49-.61-8.54,3.54-.04,3.56-.07,7.13-.11,10.69-7.19.53-14.38,1.06-21.56,1.59-4.99.37-6.74,6.48-2.52,9.32,4.42,2.97,8.89,6.76,13.64,9.2-.36,1.01-.8,2.42-.88,2.63-1.11,3.06-2.22,6.11-3.34,9.17-1.49,4.09,3.81,7.93,7.35,5.65,2.48-1.6,4.95-3.21,7.43-4.81,1.85-1.2,6.82-3.37,8.16-5.22.54,1.01,2.44,1.95,3.35,2.79,2.06,1.88,3.93,3.92,5.72,6.06,3.21,3.84,9.89-.27,8.36-4.86-1.58-4.74-3.13-9.9-3.27-14.94-.08-3.03.23-3.24,2.54-5.16,1.98-1.64,3.97-3.26,5.95-4.89,2.94-2.42,1.21-7.51-2.21-8.36Z"/>
      <path class="cls-5" d="M677.4,453.29c4.1,1.96,9.93-2.35,6.84-6.84-3.22-4.68-7.3-10.08-7.32-16.02-.02-5.68,4.08-10.57,7.36-14.84,2.19-2.85-.74-7.99-4.32-7.52-4.73.61-11.91,2.78-16.49.74-3.86-1.73-5.96-6.35-7.82-9.86-2.38-4.48-9.27-2.28-9.32,2.52-.06,6.21-.12,12.42-.17,18.64-6.35.96-12.71,1.92-19.06,2.88-3.84.58-4.64,5.95-2.21,8.36,3.53,3.5,8.38,3.68,12.09,6.57,5.02,3.9,1.07,11.69-1.02,16.05-2.53,5.27,3.41,9.62,7.85,6.06,2.59-2.08,5.21-4.1,7.9-6.06,2.54-1.85,5.54-4.71,8.56-5.64,4.87-1.49,12.73,2.87,17.12,4.97Z"/>
      <path class="cls-4" d="M560.7,496.39c-.3-.5-1.97-2.61-2-3.26.2.21,2.3-1.72,2.41-1.84,2.21-2.34,4.59-4.53,7.14-6.5,4.46-3.44,1.97-10.17-3.85-9.14-3.71.66-7.42,1.28-11.15,1.83-3.23.48-8.4,2.12-11.35.37-2.74-1.63-5.26-4.85-7.56-7.03-2.89-2.74-5.78-5.48-8.67-8.22-2.84-2.69-9.06-1.03-8.54,3.54.88,7.67,1.12,15.34.74,23.04-6.88,1.71-13.76,3.43-20.64,5.14-4.38,1.09-4.64,6.86-1.19,9.14,5.53,3.65,11.54,6.3,17.93,7.9.55,6.23-2.16,12.28-4.76,17.91-2.27,4.93,3.58,10.29,7.85,6.06,3.59-3.55,7.18-7.1,10.77-10.66,2.97-2.94,5.95-7.06,9.42-9.32,3.08-2.01,9.66.4,13.13,1.16,4.98,1.09,9.88,2.44,14.74,3.99,4.18,1.33,7.84-3.69,5.65-7.34-3.35-5.59-6.7-11.18-10.06-16.76Z"/>
      <path class="cls-12" d="M420.58,517.31c-7.65-.33-15.4.5-22.73,2.77-.05.01-3.4.82-3.24,1.32-1.03-.77-2.42-3.15-3.09-3.98-2.81-3.47-5.43-7.07-7.95-10.76-2.7-3.95-9.31-2.69-9.32,2.52,0,7.32-.01,14.64-.02,21.95-7.08,2.22-14.17,4.44-21.25,6.66-4.52,1.42-4.99,8.46,0,9.64,5.24,1.24,10.23,2.93,15.08,5.14-3.12,6.13-6.25,12.25-9.37,18.38-2.69,5.28,3.48,9.53,7.85,6.06,7.61-6.03,15.22-12.07,22.83-18.1,2.63-2.09,2.88-2.77,6.03-1.8,1.84.57,3.65,1.6,5.4,2.37,4.8,2.11,9.6,4.21,14.41,6.32,4.55,2,9.17-2.11,6.84-6.84-3.13-6.35-6.27-12.7-9.4-19.06-.43-.88-.92-2.27-.87-2.48.22-.82,3.48-3.27,4.11-3.87,2.74-2.58,5.48-5.16,8.22-7.74,3.29-3.1.62-8.35-3.54-8.54Z"/>
      <path class="cls-14" d="M271.93,552.84c1.27-.19,3.7,1.33,4.77,1.85,3.1,1.49,6.13,3.12,9.12,4.83,3.63,2.08,8.74-1.39,7.34-5.65-1.17-3.56-2.33-7.12-3.5-10.67-.59-1.79-3.21-7.25-2.85-8.37.67-2.09,5.86-5.01,7.63-6.21,2.75-1.87,5.63-3.5,8.59-4.99,4.23-2.13,2.44-9.94-2.52-9.32-7.78.98-15.65,2.41-23.47,2.96-2.15.15-3.09.15-4.91-1.15-1.35-.98-2.47-2.73-3.57-3.96-2.55-2.84-5.09-5.69-7.64-8.53-2.96-3.31-8.51-.62-8.54,3.54-.03,5.66-.06,11.32-.09,16.98-7.36,1.01-14.51,2.71-21.54,5.13-4.62,1.59-4.87,8.15,0,9.64,3.23.99,6.46,1.98,9.69,2.97,1.47.45,2.94.9,4.41,1.35.27.08.9.36,1.54.63-.2,3.2-.88,6.49-1.25,9.58-.53,4.44-1.06,8.88-1.59,13.32-.56,4.68,5.64,6.08,8.54,3.54,5.43-4.79,10.86-9.57,16.3-14.36.75-.66,2.51-2.96,3.54-3.12Z"/>
      <path class="cls-8" d="M503.52,633.61c-6.45.22-13.09.94-19.53.67-2.99-.13-3.4-2.21-4.71-4.7-1.51-2.88-3.02-5.76-4.53-8.65-2.36-4.49-9.28-2.28-9.32,2.52-.03,4.86-.07,9.72-.1,14.58-5.31,1.52-10.56,3.23-15.75,5.14-3.53,1.3-5.53,7.25-1.19,9.14,3.18,1.38,6.37,2.77,9.55,4.15,1.89.82,4.91,1.6,7.05,2.82-.71,2.61-2.59,5.52-3.49,7.68-1.44,3.44-2.87,6.87-4.31,10.31-2.28,5.45,6.2,8.35,9.14,3.85,1.96-3,4.03-5.89,6.36-8.62,1.97-2.32,3.56-5.33,6.71-4.17,6.51,2.38,12.83,6.5,19.02,9.63,3.23,1.63,7.67-.32,7.52-4.32-.25-6.96-5.08-10.86-6.96-17.08-1.74-5.74,6.09-11.06,8.85-15.43,1.99-3.16-.59-7.65-4.32-7.52Z"/>
      <path class="cls-1" d="M358.25,655.09c-3,0-6.01,0-9.01-.01-2.67,0-7.36.88-9.76-.27-2.22-1.07-3.67-5.08-4.64-7.29-1.31-3.01-2.17-6.14-2.83-9.35-1.16-5.59-9.84-4.23-9.82,1.33.02,5.59.05,11.18.07,16.77-5.29.01-10.59.02-15.88.04-4.26,0-6.7,5.51-3.54,8.54,2.23,2.13,4.64,3.87,7.47,5.11,1.28.56,2.57,1.02,3.93,1.34-.15.24-.27.44-.31.54-.7,1.42-1.41,2.84-2.11,4.26-1.55,3.13-3.1,6.25-4.65,9.38-2.57,5.17,3.49,9.76,7.85,6.06,2.92-2.48,5.84-4.96,8.77-7.43,1.46-1.24,2.92-2.48,4.38-3.72.96-.82,3.67-3.99,4.45-4.29-.05-1.07.44-.92,1.45.47.7.56,1.39,1.12,2.08,1.69,1.38,1.13,2.75,2.29,4.1,3.46,2.92,2.54,5.75,5.19,8.53,7.89,4.19,4.09,10.33-1.06,7.85-6.06-1.28-2.59-2.57-5.18-3.85-7.78-.32-.64-1.81-4.32-2.88-6.38.84-.35,1.69-.84,2.48-1.2,2.8-1.26,5.61-2.51,8.41-3.77,4.71-2.11,2.11-9.31-2.52-9.32Z"/>
      <path class="cls-13" d="M682.85,564.81c-3.78.57-7.56,1.14-11.34,1.71-2.96.45-7.27,1.86-10.05.48-4.14-2.04-6.55-7.68-10.08-10.62-4.51-3.77-10.09.84-7.85,6.06,1.78,4.15,2.63,8.46,2.79,12.88-7.32.56-14.63,1.12-21.95,1.69-5.35.41-7.11,8.38-1.33,9.82,3.85.96,7.79,1.63,11.76,1.83,1.76.09,3.53.1,5.29.01.75-.04,1.68-.21,2.64-.36-.24.86-.47,1.72-.71,2.58-.51,1.83-1.01,3.67-1.52,5.5l-3.54,12.84c-1.6,5.79,5.93,8.21,9.14,3.85,2.16-2.93,4.31-5.85,6.47-8.78,1.11-1.5,2.61-4.39,4.23-6.39,1.65,1.92,3.68,5.19,4.56,6.31,2.57,3.24,5.04,6.56,7.46,9.91,3.8,5.26,11.24.84,8.63-5.05l-4.79-10.83c-1.15-2.6-4.98-8.47-3.69-10.94,1.32-2.52,5.99-5.28,8.17-6.91,3.08-2.3,6.29-4.42,9.56-6.44,5.11-3.15,1.54-9.95-3.85-9.14Z"/>
    </g>
  </g>
</svg>